<svg xmlns="http://www.w3.org/2000/svg" width="25" height="26" fill="none"><g clip-path="url(#a)"><path fill="#7D8592" fill-rule="evenodd" d="M5.616 13.099h4.852A5.5 5.5 0 0 0 10.2 14.8a5.5 5.5 0 0 0 .667 2.635v.997H5.616zm9.966-2.25c2.151 0 3.893 1.77 3.893 3.952 0 .615-.138 1.2-.387 1.72l1.813 1.404a.755.755 0 0 1 .139 1.044.73.73 0 0 1-1.03.141l-1.798-1.392a3.85 3.85 0 0 1-2.63 1.037c-2.151 0-3.893-1.77-3.893-3.951s1.742-3.952 3.893-3.952zm0 1.703c1.223 0 2.215 1.007 2.215 2.25 0 1.242-.992 2.248-2.215 2.248s-2.214-1.006-2.214-2.249c0-1.242.99-2.249 2.214-2.249m-2.689-6.715h5.251v4.16a5.3 5.3 0 0 0-2.562-.66c-.98 0-1.897.266-2.689.73V5.836zm-7.275 0h5.251v5.335H5.62z" clip-rule="evenodd"/></g><defs><clipPath id="a"><path fill="#fff" d="M5.616 5.837h15.571V19.26H5.616z"/></clipPath></defs></svg>