<svg xmlns="http://www.w3.org/2000/svg" width="26" height="26" fill="none"><g clip-path="url(#a)"><path fill="#EB4E4E" d="M19.236 7.737 12.88 5.862c-.324-.096-.634-.007-.694.198L8.906 17.354c-.06.204.154.448.478.544l6.355 1.875c.323.095.634.006.694-.199l3.281-11.293c.06-.205-.154-.449-.478-.544"/><path fill="#7D8592" fill-rule="evenodd" d="m9.576 6.211 2.014.053-2.883 9.922.243-9.376a.614.614 0 0 1 .626-.599M6.168 7.474l2.094-.564-.133 10.353-2.394-9.036a.62.62 0 0 1 .433-.753" clip-rule="evenodd"/><path fill="#fff" fill-rule="evenodd" d="M14.683 11.65c-.015-.649-.355-1.054-.88-1.15-.705-.128-1.182.372-1.144 1.025.063 1.086.965 2.208 1.067 3.42.734-.966 2.094-1.42 2.728-2.3.382-.53.248-1.21-.414-1.485-.494-.205-.997-.048-1.357.49" clip-rule="evenodd"/></g><defs><clipPath id="a"><path fill="#fff" d="M5.714 5.837h13.961v13.96H5.715z"/></clipPath></defs></svg>