<svg xmlns="http://www.w3.org/2000/svg" width="25" height="26" fill="none"><g clip-path="url(#a)"><path fill="#838894" fill-rule="evenodd" d="M12.432 6.272c-2.563 0-4.356 1.546-4.356 3.756v4.224c0 1.71-.564 2.607-1.552 2.925h11.809c-.989-.321-1.553-1.218-1.553-2.924v-4.225c0-2.21-1.79-3.756-4.355-3.756zm0 13.958c1.076 0 1.953-.86 2.012-1.95H10.42c.06 1.086.94 1.95 2.013 1.95" clip-rule="evenodd"/></g><rect width="12.35" height="7.517" x="9.212" y="3.586" fill="#FF4458" rx="3.222"/><path fill="#fff" d="M11.855 9.602q-.519 0-.88-.233a1.94 1.94 0 0 1-.593-.601 2.7 2.7 0 0 1-.338-.835 4.085 4.085 0 0 1 0-1.842q.105-.465.338-.834.232-.368.594-.601.36-.233.88-.233.51 0 .871.233.369.233.594.601.233.369.338.835a3.8 3.8 0 0 1 0 1.841q-.105.459-.338.835a1.84 1.84 0 0 1-.594.601q-.36.233-.872.233m0-.556q.36 0 .602-.173.248-.18.398-.466.15-.294.21-.654a4.1 4.1 0 0 0 0-1.481 2.1 2.1 0 0 0-.21-.654q-.15-.285-.398-.459a.97.97 0 0 0-.602-.18q-.36 0-.609.18-.24.173-.39.459-.15.285-.219.654-.06.36-.06.737 0 .375.06.744.068.36.218.654.15.286.391.466.249.173.61.173"/><defs><clipPath id="a"><path fill="#fff" d="M6.527 6.27H18.34v13.962H6.527z"/></clipPath></defs></svg>