<svg xmlns="http://www.w3.org/2000/svg" width="64" height="23" fill="none"><path fill="#454545" d="M19.19 5.136c1.683.464 3.419.997 4.88 1.615-.43.396-.86.756-1.307 1.083-.103 3.917-.103 7.852.018 11.821a20 20 0 0 1-3.574 2.474c-1.237-.189-2.423-.6-3.317-1.1a17.3 17.3 0 0 1 2.097-1.649c.67.344 1.495.653 2.37.894.104-3.78.104-7.578-.016-11.34.36-.258.739-.499 1.117-.74-1.34-.532-2.87-.996-4.365-1.408a17.3 17.3 0 0 1 2.096-1.65m8.817 14.983c-.979-.24-2.079-.584-3.024-.996a98 98 0 0 1-.017-7.767 28 28 0 0 1 3.35-2.13c1.135.24 2.286.67 3.162 1.202.138 2.286.155 5.155.052 7.509-.825.687-2.354 1.632-3.523 2.182m-.876-9.09c-.051 1.925-.034 3.901.017 5.843.018.687.104.824.636 1.03.447.172.997.344 1.58.499.07-1.89.035-4.004-.05-5.808-.018-.48-.104-.687-.62-.945-.48-.24-.979-.43-1.563-.618m11.496 9.09c-.292-.12-.653-.343-.962-.567-.19-1.46.086-3.797.086-4.003 0-.275-.584-.567-1.976-.945 0 1.563.034 3.11.068 4.656-.687.326-1.598.653-2.37.86.068-2.475.085-4.95.085-7.424 0-3.763-.017-5.36-.12-7.216.258.051.584.172.825.275.55-.24 1.185-.499 1.718-.653-.155 1.718-.224 3.35-.224 6.426v2.474c1.34-1.168 1.822-1.735 1.822-2.027 0-.258-.292-.585-1.1-1.272a8.7 8.7 0 0 1 2.08-1.46c.618.43 1.322 1.151 1.769 1.804-.601.601-1.46 1.306-2.766 2.182.91.258 1.873.653 2.388 1.014-.189 1.271-.189 2.886-.12 3.402.051.395.154.498.996.945a11.2 11.2 0 0 1-2.2 1.53m8.34 0c-.293-.12-.654-.343-.963-.567-.189-1.46.086-3.797.086-4.003 0-.275-.584-.567-1.976-.945 0 1.563.035 3.11.069 4.656-.687.326-1.598.653-2.371.86.068-2.475.086-4.95.086-7.424 0-3.763-.018-5.36-.12-7.216.257.051.584.172.824.275.55-.24 1.186-.499 1.718-.653-.154 1.718-.223 3.35-.223 6.426v2.474c1.34-1.168 1.821-1.735 1.821-2.027 0-.258-.292-.585-1.1-1.272a8.7 8.7 0 0 1 2.08-1.46c.618.43 1.323 1.151 1.77 1.804-.602.601-1.461 1.306-2.767 2.182.91.258 1.873.653 2.388 1.014-.189 1.271-.189 2.886-.12 3.402.052.395.155.498.997.945a11.2 11.2 0 0 1-2.2 1.53m6.655 0c-1.065-.343-2.303-.91-3.35-1.53-.19-3.092-.19-5.515-.035-7.336a28.6 28.6 0 0 1 3.78-2.045c.808.877 1.633 2.303 2.13 3.746-.755.79-2.388 1.959-3.762 2.784l.017.55c.034.807.086.91.86 1.305.532.275 1.631.688 2.577.997-.705.584-1.427 1.1-2.217 1.53m-1.289-5.618c1.306-.43 1.581-.585 1.581-.756 0-.31-.704-1.77-1.53-2.818a58 58 0 0 0-.05 3.574m8.578-5.224c.739.36 1.53.962 2.045 1.53-.292.687-.928 1.82-1.306 2.336-.498-.567-1.289-1.237-2.01-1.735 0 2.165.034 3.831.051 5.378 0 .704.19.876 1.976 1.804a11.5 11.5 0 0 1-2.2 1.53c-.979-.465-1.769-.98-2.216-1.41.155-1.357.19-3.265.19-6.546-.241-.413-.86-1.066-1.238-1.358.602-.584 1.41-1.134 2.2-1.529a7.3 7.3 0 0 1 1.22 1.512c.326-.481.876-1.117 1.288-1.512"/><g clip-path="url(#a)"><path fill="#EB4E4E" d="M14.369 8.096 8.014 6.221c-.324-.095-.634-.006-.694.199L4.04 17.713c-.06.205.154.449.478.544l6.355 1.875c.323.096.634.007.694-.198L14.847 8.64c.06-.205-.154-.448-.478-.544"/><path fill="#7D8592" fill-rule="evenodd" d="m4.709 6.57 2.014.054-2.883 9.921.243-9.375a.614.614 0 0 1 .626-.6M1.3 7.833l2.095-.563-.134 10.352L.868 8.587a.62.62 0 0 1 .432-.754" clip-rule="evenodd"/><path fill="#fff" fill-rule="evenodd" d="M9.816 12.01c-.015-.649-.355-1.055-.88-1.15-.705-.129-1.182.372-1.144 1.025.063 1.086.965 2.207 1.067 3.42.734-.966 2.094-1.42 2.729-2.3.381-.53.247-1.21-.415-1.485-.494-.205-.997-.048-1.357.49" clip-rule="evenodd"/></g><defs><clipPath id="a"><path fill="#fff" d="M.847 6.197h13.961v13.96H.848z"/></clipPath></defs></svg>