<svg xmlns="http://www.w3.org/2000/svg" width="25" height="26" fill="none"><g clip-path="url(#a)"><path fill="#7D8592" fill-rule="evenodd" d="M11.424 5.837c3.91 0 7.078 2.72 7.078 6.076q0 .127-.007.25a4.9 4.9 0 0 0-2.09-.463c-2.388 0-4.322 1.662-4.322 3.71 0 .918.388 1.757 1.031 2.405a8.2 8.2 0 0 1-2.369.147l-2.952 1.77v-2.603c-2.064-1.06-3.448-3-3.448-5.217 0-3.356 3.168-6.076 7.078-6.076zm5.415 6.863c-1.997 0-3.616 1.39-3.616 3.105 0 1.713 1.619 3.103 3.616 3.103q.174 0 .346-.013l1.508.904v-1.33c1.054-.542 1.76-1.532 1.76-2.665 0-1.714-1.62-3.104-3.616-3.104z" clip-rule="evenodd"/></g><defs><clipPath id="a"><path fill="#fff" d="M4.345 5.837h16.108v13.96H4.345z"/></clipPath></defs></svg>