<svg xmlns="http://www.w3.org/2000/svg" width="27" height="28" fill="none"><g clip-path="url(#a)"><path fill="#7D8592" fill-rule="evenodd" d="M12.419 7.837h.158a6.9 6.9 0 0 0 6.9 6.901v.158a6.9 6.9 0 0 0-6.9 6.901h-.158a6.9 6.9 0 0 0-6.902-6.9v-.159a6.9 6.9 0 0 0 6.902-6.901" clip-rule="evenodd"/></g><circle cx="20.82" cy="6.495" r="5.638" fill="#FFE258"/><path fill="#000" d="M18.825 9.014q-.35 0-.657-.083a1.7 1.7 0 0 1-.523-.245 1.3 1.3 0 0 1-.356-.398 1.1 1.1 0 0 1-.133-.537q0-.231.09-.426.092-.195.245-.349.154-.16.356-.272.203-.112.42-.175a2 2 0 0 1-.392-.153 1.7 1.7 0 0 1-.328-.23q-.14-.14-.23-.322a1 1 0 0 1-.084-.412q0-.313.14-.537a1.2 1.2 0 0 1 .363-.377q.23-.153.51-.223a2.44 2.44 0 0 1 1.15 0q.287.069.51.223.23.146.37.377a.96.96 0 0 1 .147.537q0 .23-.09.412a1 1 0 0 1-.231.321 1.4 1.4 0 0 1-.328.23 2 2 0 0 1-.391.154q.216.063.419.175t.356.272q.153.153.244.35.09.194.09.425 0 .293-.132.53-.133.238-.363.398-.224.16-.53.252a2.4 2.4 0 0 1-.642.083m0-2.722q.104-.021.279-.063.174-.048.335-.14.16-.097.279-.244a.55.55 0 0 0 .119-.356.6.6 0 0 0-.084-.32.7.7 0 0 0-.216-.245.9.9 0 0 0-.322-.147 1.393 1.393 0 0 0-.789 0 1 1 0 0 0-.32.147.8.8 0 0 0-.217.244.66.66 0 0 0-.077.321q0 .21.119.356.119.147.28.245.166.09.334.14.175.04.28.062m0 2.206q.216 0 .411-.056.196-.055.342-.16a.8.8 0 0 0 .238-.252.66.66 0 0 0 .09-.342.6.6 0 0 0-.132-.39 1 1 0 0 0-.3-.273 1.4 1.4 0 0 0-.363-.168 2 2 0 0 0-.287-.07q-.105.015-.293.07a1.6 1.6 0 0 0-.363.168q-.174.104-.307.272a.6.6 0 0 0-.125.391q0 .189.083.342a.9.9 0 0 0 .238.251 1.2 1.2 0 0 0 .349.16q.202.057.419.057m4.174.516q-.49 0-.83-.195a1.7 1.7 0 0 1-.559-.53 2.5 2.5 0 0 1-.307-.768 4 4 0 0 1-.098-.908q0-.474.112-.907.111-.441.342-.768.237-.336.593-.53a1.7 1.7 0 0 1 .845-.203q.454 0 .76.16.315.154.531.398l-.293.433a1.7 1.7 0 0 0-.405-.342q-.224-.133-.593-.133-.335 0-.587.161-.244.154-.411.412a2 2 0 0 0-.238.586 3 3 0 0 0-.076.67v.091q0 .042.006.09.078-.118.203-.244.132-.132.307-.237.174-.105.377-.174.21-.07.433-.07.315 0 .586.098.28.09.489.279.21.18.328.46t.119.65q0 .307-.112.586a1.5 1.5 0 0 1-.321.482 1.6 1.6 0 0 1-.517.335q-.3.118-.684.118m-.02-.516q.271 0 .467-.091.202-.09.335-.23a1 1 0 0 0 .195-.321.9.9 0 0 0 .07-.342q0-.26-.084-.447a.88.88 0 0 0-.572-.496 1.4 1.4 0 0 0-.419-.063q-.35 0-.663.196a1.5 1.5 0 0 0-.503.502q.021.217.091.447.076.23.21.419.14.189.349.307.216.12.523.119"/><defs><clipPath id="a"><path fill="#fff" d="M5.517 7.837h13.961v13.96H5.518z"/></clipPath></defs></svg>