<svg xmlns="http://www.w3.org/2000/svg" width="26" height="26" fill="none"><g clip-path="url(#a)"><path fill="#7D8592" fill-rule="evenodd" d="M13.298 5.84c1.895 0 3.428 1.84 3.428 4.113 0 1.426-.605 2.68-1.518 3.421 2.021.598 3.457 2.124 3.457 3.909 0 .459-.093.899-.268 1.31-1.553.431-3.277.67-5.099.67-1.821 0-3.545-.239-5.098-.67a3.3 3.3 0 0 1-.269-1.31c0-1.785 1.436-3.306 3.458-3.909-.918-.737-1.52-1.995-1.52-3.42 0-2.273 1.534-4.115 3.43-4.115" clip-rule="evenodd"/></g><defs><clipPath id="a"><path fill="#fff" d="M7.931 5.837h10.74V19.26H7.93z"/></clipPath></defs></svg>