<svg xmlns="http://www.w3.org/2000/svg" width="326" height="104" fill="none"><g clip-path="url(#a)"><rect width="326" height="104" fill="url(#b)" rx="10"/><path fill="url(#c)" d="M83.5 60.5C47.851 73.138 29.388 83.65-1.5 107l235 14.5c-12.691-22.556-23-40-52.5-58s-54.414-18.56-97.5-3"/><path fill="url(#d)" d="M54.5 46c-12-4.5-23-22 0-50l255 4c20.702 20.486 26.855 30.335 31.5 46 .068 29.734-25 36-50.5 23s-43.708-19.78-88-27.5c-23.977-.682-38.666.673-68 7.5-28.895 5.385-68 1.5-80-3"/><path fill="url(#e)" fill-rule="evenodd" d="M218.5 106.807s-7.5-20.5-9.5-26.5 1-15.5 11-19.5 21.5-7 21.5-7c-.966-7.67 0-13 6-15.5s16.5-6 24.5-8.5 12.115.944 16 8.5c0 0 8.5-3.5 19-6s15-1.5 21.5 6 0 63.5 0 63.5l-14.5 5h-19.062c6.15-5.137 10.062-12.862 10.062-21.5 0-15.465-12.536-28-28-28s-28 12.535-28 28c0 8.638 3.912 16.363 10.062 21.5z" clip-rule="evenodd"/><path fill="#fff" d="M37.288 66h-4.2l-4.848-6.408-1.248 1.488V66h-3.408V49.992h3.408v7.152l5.664-7.152h4.2l-6.36 7.512zm11.162 0h-3.048v-1.2q-1.248 1.488-3.672 1.488-1.56 0-2.808-1.008-1.224-1.032-1.224-2.832 0-1.872 1.2-2.808 1.224-.936 2.832-.936 2.472 0 3.672 1.416v-1.56q0-.888-.696-1.416t-1.848-.528q-1.896 0-3.384 1.368l-1.152-2.04q2.064-1.824 5.064-1.824 2.232 0 3.648 1.032t1.416 3.36zm-5.496-1.776q1.704 0 2.448-1.008v-1.44q-.744-1.008-2.448-1.008-.936 0-1.56.48-.624.456-.624 1.272 0 .792.624 1.248t1.56.456M65.177 66h-3.048v-7.536L59.033 66H57.64l-3.12-7.536V66h-3.048V54.408h4.008l2.856 6.912 2.808-6.912h4.032zm8.478.288q-2.688 0-4.44-1.68t-1.752-4.416q0-2.568 1.68-4.32 1.704-1.752 4.32-1.752 2.592 0 4.2 1.776 1.608 1.752 1.608 4.608v.672h-8.616q.144 1.152 1.032 1.92t2.304.768q.768 0 1.656-.312.912-.312 1.44-.84l1.344 1.968q-1.752 1.608-4.776 1.608m2.664-7.176q-.072-.984-.792-1.776-.696-.792-2.064-.792-1.296 0-2.016.792a3.07 3.07 0 0 0-.84 1.776zm11.778 7.176q-2.184 0-3.576-1.776v5.904h-3.048V54.408h3.048v1.464q1.368-1.752 3.576-1.752 2.28 0 3.696 1.632 1.44 1.608 1.44 4.44t-1.44 4.464q-1.416 1.632-3.696 1.632m-.96-2.712q1.32 0 2.112-.936.816-.936.816-2.448 0-1.488-.816-2.424-.792-.936-2.112-.936a3.2 3.2 0 0 0-1.488.384q-.744.384-1.128.936v4.104q.384.552 1.128.936.768.384 1.488.384m7.92 6.96.456-2.736q.432.192.96.192 1.224 0 1.608-.84l.432-.984-4.704-11.76h3.264l3.024 8.064 3.024-8.064h3.288l-5.448 13.488q-.6 1.536-1.68 2.136-1.08.624-2.712.672-.84 0-1.512-.168M27.516 43.168a5.1 5.1 0 0 1-1.89-.35 4.8 4.8 0 0 1-1.526-.98q-.645-.645-1.022-1.526a5.2 5.2 0 0 1-.364-1.974q0-1.078.364-1.96a4.6 4.6 0 0 1 1.022-1.526 4.6 4.6 0 0 1 1.526-.994 5.1 5.1 0 0 1 1.89-.35q.616 0 1.134.14.532.14.966.392.449.252.798.588.364.336.644.728l-.98.546a3.14 3.14 0 0 0-1.092-.966 2.87 2.87 0 0 0-1.47-.392q-.77 0-1.428.28a3.5 3.5 0 0 0-1.148.784q-.476.504-.756 1.204a4.2 4.2 0 0 0-.266 1.526q0 .826.266 1.526.28.7.756 1.204.49.504 1.148.784t1.428.28q.798 0 1.47-.378a3.1 3.1 0 0 0 1.092-.98l.994.546a5.1 5.1 0 0 1-1.456 1.33q-.855.518-2.1.518M32.511 43v-6.762h1.05v2.814h3.528v-2.814h1.05V43h-1.05v-3.024H33.56V43zm7.5 0 1.806-2.66a1.98 1.98 0 0 1-1.245-.63q-.49-.545-.49-1.4 0-.434.14-.812t.405-.658q.28-.28.672-.434.407-.168.925-.168h3.57V43h-1.05v-2.618h-1.849L41.244 43zm4.732-3.542v-2.296h-2.407q-.56 0-.868.322-.309.322-.309.826t.294.826q.295.322.883.322zM49.124 43v-5.838h-1.96v-.924h4.985v.924h-1.974V43zm5.452-6.762v2.618h2.534q.517 0 .91.168.405.168.672.462.28.28.406.658.14.364.14.784t-.14.798a1.9 1.9 0 0 1-.406.658 1.9 1.9 0 0 1-.672.448 2.3 2.3 0 0 1-.91.168h-3.584v-6.762zm0 3.542v2.296h2.422q.573 0 .868-.322.294-.322.294-.826 0-.49-.294-.812-.28-.336-.868-.336zM64.448 43v-6.762h1.05v2.814h3.528v-2.814h1.05V43h-1.05v-3.024h-3.528V43zm11.953 0v-.77q-.855.938-2.24.938-.434 0-.854-.14a2.3 2.3 0 0 1-.756-.42 2.3 2.3 0 0 1-.546-.714q-.21-.42-.21-.966 0-.56.21-.98t.546-.7a2.1 2.1 0 0 1 .756-.406q.42-.14.854-.14.7 0 1.26.224.575.225.98.7v-1.218q0-.686-.49-1.05-.475-.378-1.218-.378-1.19 0-2.072.938l-.49-.728q1.079-1.12 2.702-1.12.532 0 1.008.126.476.127.826.406.364.265.574.7t.21 1.05V43zm-1.862-.588q.56 0 1.05-.21.504-.21.812-.63v-1.274a1.9 1.9 0 0 0-.812-.63 2.6 2.6 0 0 0-1.05-.21q-.742 0-1.204.42-.462.405-.462 1.064 0 .645.462 1.064.462.405 1.204.406"/></g><defs><linearGradient id="b" x1="0" x2="326" y1="104" y2="58.5" gradientUnits="userSpaceOnUse"><stop stop-color="#7B48BC"/><stop offset=".845" stop-color="#9768D7"/></linearGradient><linearGradient id="c" x1="116" x2="116" y1="49.379" y2="121.5" gradientUnits="userSpaceOnUse"><stop stop-color="#B48CF6"/><stop offset="1" stop-color="#986FD5"/></linearGradient><linearGradient id="d" x1="191.033" x2="191.033" y1="-4" y2="75.426" gradientUnits="userSpaceOnUse"><stop stop-color="#986FD6"/><stop offset="1" stop-color="#9F71EB"/></linearGradient><linearGradient id="e" x1="250" x2="269.902" y1="33.806" y2="106.807" gradientUnits="userSpaceOnUse"><stop offset=".185" stop-color="#fff"/><stop offset="1" stop-color="#fff" stop-opacity=".1"/></linearGradient><clipPath id="a"><rect width="326" height="104" fill="#fff" rx="10"/></clipPath></defs></svg>