<svg xmlns="http://www.w3.org/2000/svg" width="150" height="150" fill="none"><path fill="#000" fill-opacity=".7" d="M54.757 100.657c-4.173-4.083-9.753-6.813-16.126-7.978 9.006-2.883 15.516-11.017 15.516-20.582 0-11.968-10.188-21.705-22.712-21.705S8.725 60.13 8.725 72.097c0 9.565 6.51 17.699 15.516 20.582-6.373 1.165-11.952 3.894-16.126 7.977-5.513 5.394-8.316 12.838-8.104 21.53.067 2.741 2.412 4.93 5.28 4.93h52.29c2.869 0 5.213-2.189 5.28-4.93.212-8.692-2.59-16.136-8.104-21.529M141.886 70.37c-4.173-4.083-9.753-6.813-16.126-7.979 9.006-2.882 15.516-11.016 15.516-20.581 0-11.968-10.188-21.705-22.712-21.705S95.853 29.842 95.853 41.81c0 9.564 6.51 17.699 15.516 20.581-6.373 1.166-11.952 3.895-16.126 7.978-5.514 5.394-8.316 12.838-8.104 21.53.067 2.74 2.412 4.93 5.28 4.93h52.289c2.869 0 5.214-2.19 5.28-4.93.213-8.692-2.589-16.136-8.102-21.53M22.139 45.594a5.43 5.43 0 0 0 3.048.93c1.655 0 3.286-.743 4.315-2.132C39.867 30.405 56.688 22.013 74.568 21.88l-3.302 3.155c-2.062 1.971-2.062 5.167 0 7.139a5.4 5.4 0 0 0 3.735 1.478 5.4 5.4 0 0 0 3.735-1.478L91.06 20.396c2.063-1.972 2.063-5.167 0-7.14L78.736 1.479c-2.063-1.97-5.406-1.97-7.47 0-2.062 1.97-2.062 5.167 0 7.138l3.314 3.169c-21.304.129-41.355 10.114-53.7 26.773-1.685 2.274-1.121 5.425 1.259 7.036M128.081 104.301c-2.393-1.594-5.685-1.034-7.354 1.252-9.589 13.137-24.805 21.402-41.333 22.654l3.391-3.241c2.063-1.971 2.063-5.168 0-7.139-2.062-1.971-5.406-1.971-7.469 0l-12.325 11.778c-2.062 1.971-2.062 5.167 0 7.139l12.325 11.777A5.4 5.4 0 0 0 79.051 150a5.4 5.4 0 0 0 3.734-1.479c2.063-1.97 2.063-5.167 0-7.138l-3.208-3.066c19.912-1.32 38.285-11.195 49.813-26.988 1.669-2.286 1.083-5.433-1.309-7.028"/></svg>