<svg xmlns="http://www.w3.org/2000/svg" width="150" height="150" fill="none"><g fill="#000" opacity=".7"><path d="M109.629 7.383c-.469.469-.704 1.406-.879 3.164-.586 6.152-2.637 10.723-6.739 14.824-2.754 2.813-5.566 4.57-9.316 5.86-1.934.644-3.164.761-8.613.878-3.516.059-6.739.293-7.266.47-.527.233-2.695 2.987-5.977 7.558l-5.156 7.207-10.195-.059-10.195-.117-.176-4.395c-.117-2.46-.352-4.921-.586-5.507-.762-1.758-2.402-3.457-4.277-4.57-1.582-.88-2.168-.997-4.57-.997-3.34 0-4.923.703-7.032 3.164-1.875 2.11-2.461 4.16-2.461 8.848v3.75h-3.047c-6.797 0-12.129 2.871-15.176 8.32-2.226 3.809-2.168 3.164-2.05 40.664.117 32.813.117 34.043.82 35.86 1.523 4.336 5.39 8.32 9.726 10.078l1.993.82 55.195.117c40.312.059 55.723 0 57.246-.293 2.988-.586 5.449-1.875 7.91-4.16 2.578-2.402 4.16-5.215 4.863-8.496.762-3.457.762-66.387 0-69.844-1.289-6.27-6.445-11.425-12.539-12.715-1.933-.351-1.992-.41-3.867-3.164-1.054-1.523-1.933-2.87-1.992-2.988s1.113-.82 2.578-1.523c2.695-1.23 6.973-2.285 9.258-2.285 2.52 0 3.867-2.871 2.109-4.63-.644-.644-1.289-.82-3.515-.995-11.016-.762-20.215-9.668-21.094-20.215-.234-3.164-.41-3.75-1.172-4.512-.937-.937-2.93-.937-3.808-.117m3.75 17.344c2.578 3.984 5.566 6.738 10.488 9.726l.996.645-2.578 1.523c-3.223 1.992-6.797 5.508-8.965 8.73-.938 1.407-1.758 2.637-1.816 2.696s-.528-.645-1.055-1.524c-2.403-4.101-6.563-8.261-10.547-10.43l-1.7-.878 2.637-1.7c3.399-2.109 7.442-6.269 9.2-9.257.703-1.29 1.406-2.285 1.465-2.227.058 0 .878 1.29 1.875 2.696m-74.708 13.71c.938 1.055.938 1.231.938 5.04v3.984H31.64v-3.633c0-4.043.41-5.332 1.992-6.21 1.582-.88 3.868-.47 5.04.82m54.434.645c8.613 2.988 14.297 10.02 15.469 19.16.527 4.16.586 4.336 1.875 4.922.996.469 1.289.527 2.109.117 1.289-.644 1.875-1.816 1.875-4.101 0-3.75 1.875-8.907 4.571-12.305.761-.996 1.464-1.816 1.64-1.816s1.231 1.464 2.461 3.28c2.637 3.927 3.399 4.63 5.215 4.63 2.93 0 6.387 1.992 8.262 4.629 2.109 3.105 2.109 2.226 1.992 38.671l-.117 33.047-1.114 2.344c-.82 1.699-1.64 2.754-2.871 3.692-3.222 2.578.938 2.46-60.117 2.343l-54.844-.117-1.582-.703c-2.285-1.055-4.277-2.988-5.39-5.215l-.938-1.992V61.113l.703-1.582c1.055-2.226 3.047-4.336 5.098-5.39l1.758-.938 24.492-.176c23.73-.175 24.61-.234 25.254-.879.41-.351 2.988-3.75 5.625-7.5l4.922-6.855 5.332.117c4.804.059 5.625.235 8.32 1.172"/><path d="M87.48 61.934c-3.457.468-8.379 2.168-11.484 3.984-3.574 2.11-8.848 7.324-10.781 10.664-3.282 5.8-4.395 10.195-4.16 17.05.117 3.81.292 5.157 1.113 7.559 3.398 10.547 11.25 17.989 22.09 20.918 1.816.469 3.574.645 7.382.645 4.395-.059 5.332-.117 8.086-.938 10.489-3.164 18.223-11.015 21.27-21.386 1.055-3.692 1.113-12.188.117-15.704-3.809-13.183-14.883-22.148-28.183-22.91-1.7-.117-4.16-.058-5.45.117m10.078 6.035c4.981 1.113 10.489 4.746 13.653 8.906 3.808 5.039 5.508 10.254 5.215 16.582-.235 6.27-2.286 11.25-6.563 15.879-11.777 12.832-33.047 9.785-40.723-5.801-1.992-3.984-2.636-6.738-2.636-11.133 0-11.074 6.68-20.39 17.285-23.906 4.219-1.465 8.906-1.64 13.77-.527"/><path d="M86.19 76.172c-5.741 1.933-10.019 6.68-11.366 12.305-1.934 8.378 2.87 17.05 11.191 20.039 2.871 1.054 8.086 1.054 10.957 0 8.32-3.047 13.184-11.895 11.074-20.157-2.05-7.968-8.496-12.949-16.699-12.949-2.11-.058-3.574.176-5.156.762m10.255 5.683c2.285 1.172 4.394 3.34 5.508 5.508.82 1.64.937 2.344.937 4.864 0 2.46-.117 3.222-.879 4.804-1.113 2.402-3.281 4.571-5.742 5.742-2.754 1.289-6.68 1.348-9.434.059-2.402-1.113-4.453-3.105-5.742-5.508-.82-1.64-.937-2.226-.937-4.922 0-3.633.644-5.39 2.988-7.91 2.578-2.754 4.805-3.633 8.906-3.516 2.168.118 3.223.293 4.395.88M32.988 65.86c-3.34.937-6.27 3.925-7.149 7.207-1.289 4.746 1.29 9.96 5.86 12.128 2.285 1.055 6.21.997 8.32-.058 6.504-3.164 8.027-11.602 2.988-16.524-2.695-2.636-6.68-3.75-10.02-2.754m4.804 5.683c2.403 1.113 3.282 4.043 2.051 6.504-2.11 4.043-8.32 2.695-8.73-1.875-.235-1.992.82-3.75 2.636-4.629 1.524-.82 2.227-.82 4.043 0"/></g></svg>