<svg xmlns="http://www.w3.org/2000/svg" width="300" height="215" fill="none"><path fill="#EEE" d="M211.729 208.7c0 3.213-26.93 5.827-60.146 5.827s-60.145-2.604-60.145-5.827c0-3.214 26.93-5.828 60.145-5.828s60.146 2.614 60.146 5.828"/><path fill="#FF5069" d="M223.994 69.421a53 53 0 0 0-.132-2.248 72 72 0 0 0-1.078-8.115c-.132-.712-.285-1.414-.437-2.126a74 74 0 0 0-3.001-10.028 52 52 0 0 0-.895-2.237C207.834 19.232 183.049 0 151.583 0c-30.002 0-53.942 17.493-65.292 41.169-.315.62-.6 1.25-.875 1.891a71.6 71.6 0 0 0-4.729 14.574 29 29 0 0 0-.417 2.136 67 67 0 0 0-1.067 9.499c-.041.68-.062 1.342-.072 2.034-.01.396-.01.783-.01 1.19 0 12.051 3.061 24.418 9.794 36.083l57.146 98.985c2.461 4.262 8.604 4.262 11.065 0l57.145-98.985c7.303-12.662 10.293-26.147 9.723-39.155m-69.899 44.301c-21.622-1.373-38.768-19.354-38.768-41.341 0-1.414.071-2.797.213-4.17.071-.692.153-1.363.254-2.044a41.7 41.7 0 0 1 3.143-10.72c.305-.681.62-1.352.966-2.003a38 38 0 0 1 3.031-4.973q.656-.943 1.373-1.841c7.099-8.92 17.787-14.838 29.849-15.58 11.502.701 21.734 6.101 28.792 14.299.488.559.945 1.118 1.393 1.698a40 40 0 0 1 4.088 6.407c.346.661.672 1.322.966 2.014a43 43 0 0 1 1.617 4.22c.224.682.417 1.373.601 2.065a41.2 41.2 0 0 1 1.383 10.628c.01 22.028-17.198 40.039-38.901 41.341"/><path fill="#EF354F" d="m214.273 108.566-57.156 98.975c-2.461 4.261-8.604 4.261-11.065 0l-5.238-9.092 58.306-74.811c30.205-39.806 25.425-88.358-13.323-112.715C175.413 4.403 163.107.407 149.49.03c.691-.01 1.403-.031 2.095-.031 55.711 0 90.534 60.319 62.688 108.566"/><path fill="#EF354F" d="M154.087 113.722c-.122.01-.254.02-.376.02-.356.01-.702.03-1.058.041-.356.01-.712.01-1.078.01-11.441 0-21.794-4.638-29.29-12.133-7.495-7.496-12.133-17.849-12.133-29.29 0-22.873 18.54-41.413 41.413-41.413.427 0 .864.01 1.292.02.427.01.864.031 1.281.062-21.652 1.322-38.84 19.323-38.84 41.33.031 21.999 17.168 39.98 38.789 41.353"/><path fill="#EEE" d="M65.184 163.666c0 1.587-13.242 2.868-29.565 2.868s-29.564-1.281-29.564-2.868 13.241-2.868 29.564-2.868 29.565 1.292 29.565 2.868"/><path fill="#F54847" d="M36.834 116.987c-.061 0-.122.01-.183.01-.173 0-.346.01-.519.021-.173 0-.346.01-.529.01-5.624 0-11.827-1.17-15.509-4.851s-8.207-9.886-8.207-15.51c0-11.248 12.478-20.36 23.716-20.36.214 0 .428 0 .641.01.214 0 .427.01.63.03-10.647.651-19.089 9.5-19.089 20.32 0 10.801 8.421 19.639 19.049 20.32"/><path fill="#E6E6E6" d="M71.211 95.203c-.01-.376-.04-.742-.061-1.108a35 35 0 0 0-.529-3.987l-.213-1.048a36 36 0 0 0-1.475-4.932c-.143-.366-.285-.743-.437-1.099-5.218-12.499-17.401-21.957-32.87-21.957-14.747 0-26.514 8.604-32.097 20.239-.153.305-.295.62-.427.935a35.5 35.5 0 0 0-2.33 7.16 13 13 0 0 0-.202 1.048 34 34 0 0 0-.53 4.668c-.02.335-.03.66-.04.996v.58c0 5.919 1.505 12.001 4.82 17.737l28.09 48.664c1.21 2.095 4.231 2.095 5.441 0l28.09-48.664c3.58-6.204 5.045-12.835 4.77-19.232m-34.365 21.774c-10.627-.671-19.069-9.509-19.069-20.32 0-.691.041-1.373.102-2.054.04-.346.081-.671.122-1.007.275-1.85.814-3.62 1.546-5.268.152-.335.305-.66.478-.986.437-.855.936-1.678 1.485-2.451.213-.316.437-.61.671-.906 3.488-4.383 8.746-7.291 14.675-7.658 5.655.346 10.679 3 14.157 7.028.234.274.468.55.682.834a19.5 19.5 0 0 1 2.013 3.153c.173.325.326.65.478.986q.458 1.007.794 2.075c.111.335.203.671.295 1.017.447 1.668.68 3.417.68 5.227.011 10.842-8.44 19.7-19.109 20.33"/><path fill="#D9D9D9" d="m66.43 114.444-28.1 48.654c-1.21 2.095-4.23 2.095-5.44 0l-2.574-4.475 28.66-36.775c14.848-19.567 12.499-43.436-6.55-55.407-5.105-3.203-11.156-5.166-17.848-5.349.345-.01.691-.01 1.027-.01 27.388 0 44.514 29.646 30.825 53.362"/><path fill="#D9D9D9" d="M36.84 116.986c-.062 0-.123.01-.184.01-.173 0-.346.011-.519.021h-.528c-5.625 0-10.71-2.278-14.401-5.96a20.3 20.3 0 0 1-5.96-14.4c0-11.249 9.112-20.361 20.36-20.361.214 0 .428 0 .641.01.214 0 .427.01.63.03-10.647.651-19.088 9.5-19.088 20.32 0 10.811 8.42 19.649 19.048 20.33"/><path fill="#EEE" d="M293.941 172.179c0 1.587-13.241 2.868-29.564 2.868-16.333 0-29.565-1.281-29.565-2.868s13.242-2.867 29.565-2.867c16.323.01 29.564 1.291 29.564 2.867"/><path fill="#F54847" d="M265.592 125.489c-.061 0-.122.01-.183.01-.173 0-.346.01-.519.02-.173 0-.346.01-.529.01-5.624 0-11.828-1.169-15.509-4.851s-8.207-9.885-8.207-15.509c0-11.248 12.478-20.36 23.716-20.36.214 0 .427 0 .641.01.213 0 .427.01.63.03-10.648.65-19.089 9.499-19.089 20.32-.01 10.811 8.421 19.649 19.049 20.32"/><path fill="#E6E6E6" d="M299.969 103.714c-.01-.376-.041-.742-.061-1.108a35 35 0 0 0-.529-3.987c-.071-.346-.142-.702-.214-1.047a36 36 0 0 0-1.474-4.933c-.143-.366-.285-.742-.438-1.098-5.217-12.5-17.401-21.957-32.869-21.957-14.747 0-26.514 8.603-32.097 20.238-.153.305-.295.62-.427.936a35.5 35.5 0 0 0-2.329 7.16c-.082.345-.153.701-.204 1.047a34 34 0 0 0-.529 4.668c-.02.336-.03.661-.04.997v.579c0 5.919 1.505 12.001 4.82 17.737l28.09 48.664c1.21 2.095 4.231 2.095 5.441 0l28.09-48.664c3.57-6.204 5.044-12.835 4.77-19.232m-34.375 21.775c-10.628-.672-19.059-9.51-19.059-20.32 0-.692.041-1.373.102-2.055l.122-1.007c.274-1.85.813-3.62 1.546-5.268.152-.335.305-.66.478-.986.437-.854.935-1.678 1.485-2.451.213-.315.437-.61.671-.905 3.488-4.384 8.746-7.292 14.675-7.658 5.655.345 10.679 3 14.157 7.027.234.275.468.55.681.834a19.5 19.5 0 0 1 2.014 3.153c.173.325.326.65.478.986q.458 1.007.793 2.075c.112.336.204.671.295 1.017.448 1.668.682 3.417.682 5.227.01 10.842-8.442 19.69-19.12 20.331"/><path fill="#D9D9D9" d="m295.178 122.957-28.1 48.654c-1.21 2.095-4.23 2.095-5.441 0l-2.573-4.475 28.66-36.775c14.848-19.567 12.499-43.437-6.55-55.407-5.105-3.203-11.156-5.166-17.848-5.35.345-.01.691-.01 1.027-.01 27.398-.01 44.514 29.646 30.825 53.363"/><path fill="#D9D9D9" d="M265.597 125.488c-.061 0-.122.01-.183.01a9 9 0 0 0-.519.02h-.529a20.32 20.32 0 0 1-14.4-5.959 20.3 20.3 0 0 1-5.96-14.401c0-11.248 9.112-20.36 20.36-20.36.214 0 .428 0 .641.01.214 0 .427.01.631.03-10.648.65-19.09 9.499-19.09 20.32-.01 10.821 8.421 19.659 19.049 20.33"/><path fill="#EEE" d="M228.601 186.815c0 .783-6.519 1.414-14.574 1.414s-14.574-.631-14.574-1.414 6.519-1.414 14.574-1.414 14.574.631 14.574 1.414"/><path fill="#F54847" d="M214.641 163.81h-.091c-.082 0-.173.01-.254.01h-.265c-2.776 0-5.827-.569-7.638-2.39-1.82-1.82-4.047-4.871-4.047-7.638 0-5.542 6.142-10.027 11.685-10.027h.315c.102 0 .214.01.316.01-5.248.325-9.408 4.678-9.408 10.017 0 5.329 4.15 9.682 9.387 10.018"/><path fill="#E6E6E6" d="m231.571 153.08-.03-.549a18 18 0 0 0-.265-1.963c-.03-.173-.071-.346-.101-.519a18.5 18.5 0 0 0-.723-2.43c-.071-.183-.142-.366-.213-.539-2.573-6.163-8.573-10.821-16.201-10.821-7.272 0-13.069 4.241-15.815 9.977l-.213.457a17.2 17.2 0 0 0-1.149 3.529 9 9 0 0 0-.102.519 16 16 0 0 0-.254 2.298c-.01.163-.021.326-.021.489v.284c0 2.919.743 5.919 2.37 8.736l13.842 23.982c.6 1.027 2.084 1.027 2.674 0l13.842-23.982c1.78-3.051 2.502-6.315 2.359-9.468m-16.933 10.73c-5.238-.336-9.397-4.689-9.397-10.018 0-.346.02-.681.051-1.007.02-.173.04-.325.061-.498a10.06 10.06 0 0 1 1.729-4.292c.101-.152.213-.305.335-.447a10.06 10.06 0 0 1 7.231-3.774 9.99 9.99 0 0 1 6.977 3.468c.122.133.224.275.335.417.377.489.712.997.987 1.556.081.163.163.326.234.489.152.335.274.671.397 1.017.05.162.101.335.142.498a9.8 9.8 0 0 1 .336 2.573c.01 5.339-4.16 9.702-9.418 10.018"/><path fill="#D9D9D9" d="M229.221 162.559 215.38 186.54a1.555 1.555 0 0 1-2.685 0l-1.271-2.207 14.126-18.123c7.312-9.642 6.153-21.408-3.224-27.307-2.512-1.576-5.502-2.543-8.797-2.634.173 0 .336-.01.509-.01 13.495 0 21.926 14.614 15.183 26.3"/><path fill="#D9D9D9" d="M214.636 163.809h-.091c-.082 0-.173.01-.254.01h-.265a10 10 0 0 1-7.099-2.939 10 10 0 0 1-2.939-7.099c0-5.542 4.495-10.027 10.028-10.027h.315c.102 0 .214.01.316.01-5.248.325-9.408 4.678-9.408 10.017.01 5.34 4.16 9.692 9.397 10.028"/><path fill="#EEE" d="M100.767 185.38c0 .783-6.52 1.414-14.574 1.414s-14.574-.631-14.574-1.414 6.52-1.414 14.574-1.414 14.574.631 14.574 1.414"/><path fill="#F54847" d="M86.805 162.374h-.091c-.082 0-.173.01-.254.01h-.265c-2.776 0-5.827-.569-7.637-2.39-1.821-1.82-4.048-4.871-4.048-7.637 0-5.543 6.142-10.028 11.685-10.028h.316c.101 0 .213.01.315.01-5.248.325-9.408 4.678-9.408 10.018-.01 5.329 4.15 9.681 9.387 10.017"/><path fill="#E6E6E6" d="m103.737 151.635-.03-.549a18 18 0 0 0-.265-1.963c-.03-.173-.071-.346-.101-.519a19 19 0 0 0-.722-2.431c-.072-.183-.143-.366-.214-.539-2.573-6.163-8.573-10.821-16.201-10.821-7.272 0-13.069 4.241-15.814 9.977l-.214.458a17 17 0 0 0-1.15 3.529c-.04.173-.07.346-.101.519a16 16 0 0 0-.254 2.298c-.01.163-.02.326-.02.488v.285c0 2.919.742 5.919 2.369 8.736l13.842 23.981c.6 1.027 2.084 1.027 2.674 0l13.842-23.981a17.3 17.3 0 0 0 2.359-9.468m-16.933 10.739c-5.238-.335-9.397-4.688-9.397-10.017 0-.346.02-.682.05-1.007l.062-.498a10.05 10.05 0 0 1 1.729-4.292 5 5 0 0 1 .335-.448 10.05 10.05 0 0 1 7.231-3.773 9.99 9.99 0 0 1 6.977 3.468c.122.133.224.275.335.417.377.488.712.997.987 1.556.081.163.163.326.234.489.152.335.275.671.397 1.017.05.162.101.335.142.498.224.824.336 1.688.336 2.573 0 5.339-4.16 9.702-9.418 10.017"/><path fill="#D9D9D9" d="m101.38 161.124-13.842 23.97a1.554 1.554 0 0 1-2.685 0l-1.271-2.206 14.126-18.124c7.313-9.641 6.153-21.408-3.224-27.306-2.512-1.577-5.502-2.543-8.797-2.634.173 0 .336-.011.509-.011 13.496.011 21.926 14.625 15.184 26.311"/><path fill="#D9D9D9" d="M86.802 162.375h-.091c-.082 0-.173.01-.254.01h-.265a10 10 0 0 1-7.098-2.939 10 10 0 0 1-2.94-7.099c0-5.543 4.496-10.028 10.028-10.028h.315c.102 0 .214.011.316.011-5.248.325-9.408 4.678-9.408 10.017s4.16 9.692 9.397 10.028"/></svg>