<svg xmlns="http://www.w3.org/2000/svg" width="322" height="58" fill="none"><path fill="#fff" d="M37.55 8.075c3.43.945 6.965 2.03 9.94 3.29a31 31 0 0 1-2.66 2.205c-.21 7.98-.21 15.995.035 24.08-2.205 1.925-4.655 3.605-7.28 5.04-2.52-.385-4.935-1.225-6.755-2.24a35 35 0 0 1 4.27-3.36c1.365.7 3.045 1.33 4.83 1.82.21-7.7.21-15.435-.035-23.1a51 51 0 0 1 2.275-1.505c-2.73-1.085-5.845-2.03-8.89-2.87a35 35 0 0 1 4.27-3.36m17.962 30.52c-1.995-.49-4.235-1.19-6.16-2.03-.21-5.18-.245-10.64-.035-15.82 1.995-1.505 4.725-3.22 6.825-4.34 2.31.49 4.655 1.365 6.44 2.45.28 4.655.315 10.5.105 15.295-1.68 1.4-4.795 3.325-7.175 4.445M53.727 20.08c-.105 3.92-.07 7.945.035 11.9.035 1.4.21 1.68 1.295 2.1.91.35 2.03.7 3.22 1.015.14-3.85.07-8.155-.105-11.83-.035-.98-.21-1.4-1.26-1.925-.98-.49-1.995-.875-3.185-1.26m23.417 18.515c-.595-.245-1.33-.7-1.96-1.155-.385-2.975.175-7.735.175-8.155 0-.56-1.19-1.155-4.025-1.925 0 3.185.07 6.335.14 9.485-1.4.665-3.255 1.33-4.83 1.75.14-5.04.175-10.08.175-15.12 0-7.665-.035-10.92-.245-14.7.525.105 1.19.35 1.68.56 1.12-.49 2.415-1.015 3.5-1.33-.315 3.5-.455 6.825-.455 13.09v5.04c2.73-2.38 3.71-3.535 3.71-4.13 0-.525-.595-1.19-2.24-2.59a17.8 17.8 0 0 1 4.235-2.975c1.26.875 2.695 2.345 3.605 3.675-1.225 1.225-2.975 2.66-5.635 4.445 1.855.525 3.815 1.33 4.865 2.065-.385 2.59-.385 5.88-.245 6.93.105.805.315 1.015 2.03 1.925a22.7 22.7 0 0 1-4.48 3.115m16.987 0c-.595-.245-1.33-.7-1.96-1.155-.385-2.975.175-7.735.175-8.155 0-.56-1.19-1.155-4.025-1.925 0 3.185.07 6.335.14 9.485-1.4.665-3.255 1.33-4.83 1.75.14-5.04.175-10.08.175-15.12 0-7.665-.035-10.92-.245-14.7.525.105 1.19.35 1.68.56 1.12-.49 2.415-1.015 3.5-1.33-.315 3.5-.455 6.825-.455 13.09v5.04c2.73-2.38 3.71-3.535 3.71-4.13 0-.525-.595-1.19-2.24-2.59a17.8 17.8 0 0 1 4.235-2.975c1.26.875 2.695 2.345 3.605 3.675-1.225 1.225-2.975 2.66-5.635 4.445 1.855.525 3.815 1.33 4.865 2.065-.385 2.59-.385 5.88-.245 6.93.105.805.315 1.015 2.03 1.925a22.7 22.7 0 0 1-4.48 3.115m13.557 0c-2.17-.7-4.69-1.855-6.825-3.115-.385-6.3-.385-11.235-.07-14.945 2.415-1.54 5.075-3.01 7.7-4.165 1.645 1.785 3.325 4.69 4.34 7.63-1.54 1.61-4.865 3.99-7.665 5.67l.035 1.12c.07 1.645.175 1.855 1.75 2.66 1.085.56 3.325 1.4 5.25 2.03-1.435 1.19-2.905 2.24-4.515 3.115m-2.625-11.445c2.66-.875 3.22-1.19 3.22-1.54 0-.63-1.435-3.605-3.115-5.74-.105 2.065-.14 4.62-.105 7.28m17.473-10.64c1.505.735 3.115 1.96 4.165 3.115-.595 1.4-1.89 3.71-2.66 4.76-1.015-1.155-2.625-2.52-4.095-3.535 0 4.41.07 7.805.105 10.955 0 1.435.385 1.785 4.025 3.675a23.3 23.3 0 0 1-4.48 3.115c-1.995-.945-3.605-1.995-4.515-2.87.315-2.765.385-6.65.385-13.335-.49-.84-1.75-2.17-2.52-2.765 1.225-1.19 2.87-2.31 4.48-3.115.91.84 1.89 2.065 2.485 3.08.665-.98 1.785-2.275 2.625-3.08"/><g clip-path="url(#a)"><path fill="#FD3A73" d="M28.088 13.219 14.887 9.055c-.672-.212-1.317-.015-1.441.44L6.629 34.573c-.124.455.321.996.993 1.208l13.202 4.164c.672.212 1.317.015 1.44-.44l6.817-25.078c.124-.455-.32-.996-.993-1.208"/><path fill="#7D8592" fill-rule="evenodd" d="m8.021 9.831 4.184.118-5.988 22.03.504-20.818c.018-.751.603-1.35 1.3-1.33m-7.08 2.804 4.35-1.251-.276 22.987L.043 14.307c-.18-.726.224-1.479.898-1.672" clip-rule="evenodd"/><path fill="#fff" fill-rule="evenodd" d="M18.63 21.907c-.031-1.439-.737-2.34-1.828-2.552-1.464-.286-2.455.825-2.376 2.276.13 2.412 2.005 4.902 2.215 7.594 1.526-2.145 4.35-3.152 5.669-5.107.793-1.176.514-2.687-.862-3.298-1.025-.455-2.07-.106-2.817 1.087" clip-rule="evenodd"/></g><defs><clipPath id="a"><path fill="#fff" d="M0 9h29v31H0z"/></clipPath></defs></svg>