<svg width="46" height="46" viewBox="0 0 46 46" fill="none" xmlns="http://www.w3.org/2000/svg">
<path d="M20.8279 23.512H30.4528M22.031 25.9183H30.4528M22.031 28.3245H29.2497M21.7479 30.7307H27.7634M20.8279 33.1369H25.6404M19.3417 35.5431H22.951M20.0848 37.9493H22.491M22.491 40.3555H23.6941M15.7178 23.0528L14.3877 26.3775H17.6075L15.7178 31.5221M14.7079 20.8889C12.1078 20.8889 10 18.8161 10 16.2593C10 13.6176 12.2406 11.6296 14.8616 11.6296C14.8616 9.07276 16.9694 7 19.5695 7C21.0879 7 22.4384 7.70683 23.2993 8.80413C24.1312 8.07563 25.2276 7.633 26.4291 7.633C28.8349 7.633 30.8192 9.40742 31.1024 11.698C33.3164 12.0757 35 13.9741 35 16.2593C35 18.8161 32.8922 20.8889 30.2921 20.8889H14.7079Z" stroke="white" stroke-width="1.2" stroke-linecap="round"/>
<g filter="url(#filter0_d_176_1083)">
<mask id="path-2-outside-1_176_1083" maskUnits="userSpaceOnUse" x="16" y="11" width="14" height="8" fill="black">
<rect fill="white" x="16" y="11" width="14" height="8"/>
<path d="M17.9012 18V12.987L16.9382 14.004L16.4882 13.545L17.9912 11.997H18.6482V18H17.9012ZM19.61 18V17.406C20.15 16.98 20.627 16.596 21.041 16.254C21.455 15.906 21.803 15.585 22.085 15.291C22.367 14.991 22.58 14.712 22.724 14.454C22.868 14.19 22.94 13.929 22.94 13.671C22.94 13.479 22.904 13.314 22.832 13.176C22.76 13.038 22.664 12.924 22.544 12.834C22.43 12.744 22.298 12.678 22.148 12.636C21.998 12.594 21.845 12.573 21.689 12.573C21.329 12.573 21.011 12.642 20.735 12.78C20.459 12.918 20.234 13.101 20.06 13.329L19.601 12.852C19.829 12.546 20.126 12.312 20.492 12.15C20.864 11.988 21.263 11.907 21.689 11.907C21.941 11.907 22.187 11.943 22.427 12.015C22.667 12.087 22.88 12.195 23.066 12.339C23.258 12.483 23.411 12.666 23.525 12.888C23.645 13.11 23.705 13.371 23.705 13.671C23.705 13.977 23.63 14.28 23.48 14.58C23.336 14.874 23.132 15.171 22.868 15.471C22.61 15.765 22.304 16.068 21.95 16.38C21.596 16.686 21.209 17.004 20.789 17.334H23.732V18H19.61ZM26.944 18.108C26.53 18.108 26.179 18.015 25.891 17.829C25.603 17.643 25.366 17.403 25.18 17.109C24.994 16.809 24.859 16.476 24.775 16.11C24.691 15.738 24.649 15.369 24.649 15.003C24.649 14.637 24.691 14.271 24.775 13.905C24.859 13.533 24.994 13.2 25.18 12.906C25.366 12.612 25.603 12.372 25.891 12.186C26.179 12 26.53 11.907 26.944 11.907C27.352 11.907 27.7 12 27.988 12.186C28.282 12.372 28.519 12.612 28.699 12.906C28.885 13.2 29.02 13.533 29.104 13.905C29.194 14.271 29.239 14.637 29.239 15.003C29.239 15.369 29.194 15.738 29.104 16.11C29.02 16.476 28.885 16.809 28.699 17.109C28.519 17.403 28.282 17.643 27.988 17.829C27.7 18.015 27.352 18.108 26.944 18.108ZM26.944 17.442C27.232 17.442 27.472 17.373 27.664 17.235C27.862 17.091 28.021 16.905 28.141 16.677C28.261 16.443 28.345 16.182 28.393 15.894C28.447 15.6 28.474 15.303 28.474 15.003C28.474 14.703 28.447 14.409 28.393 14.121C28.345 13.827 28.261 13.566 28.141 13.338C28.021 13.11 27.862 12.927 27.664 12.789C27.472 12.645 27.232 12.573 26.944 12.573C26.656 12.573 26.413 12.645 26.215 12.789C26.023 12.927 25.867 13.11 25.747 13.338C25.627 13.566 25.54 13.827 25.486 14.121C25.438 14.409 25.414 14.703 25.414 15.003C25.414 15.303 25.438 15.6 25.486 15.894C25.54 16.182 25.627 16.443 25.747 16.677C25.867 16.905 26.023 17.091 26.215 17.235C26.413 17.373 26.656 17.442 26.944 17.442Z"/>
</mask>
<path d="M17.9012 18V12.987L16.9382 14.004L16.4882 13.545L17.9912 11.997H18.6482V18H17.9012ZM19.61 18V17.406C20.15 16.98 20.627 16.596 21.041 16.254C21.455 15.906 21.803 15.585 22.085 15.291C22.367 14.991 22.58 14.712 22.724 14.454C22.868 14.19 22.94 13.929 22.94 13.671C22.94 13.479 22.904 13.314 22.832 13.176C22.76 13.038 22.664 12.924 22.544 12.834C22.43 12.744 22.298 12.678 22.148 12.636C21.998 12.594 21.845 12.573 21.689 12.573C21.329 12.573 21.011 12.642 20.735 12.78C20.459 12.918 20.234 13.101 20.06 13.329L19.601 12.852C19.829 12.546 20.126 12.312 20.492 12.15C20.864 11.988 21.263 11.907 21.689 11.907C21.941 11.907 22.187 11.943 22.427 12.015C22.667 12.087 22.88 12.195 23.066 12.339C23.258 12.483 23.411 12.666 23.525 12.888C23.645 13.11 23.705 13.371 23.705 13.671C23.705 13.977 23.63 14.28 23.48 14.58C23.336 14.874 23.132 15.171 22.868 15.471C22.61 15.765 22.304 16.068 21.95 16.38C21.596 16.686 21.209 17.004 20.789 17.334H23.732V18H19.61ZM26.944 18.108C26.53 18.108 26.179 18.015 25.891 17.829C25.603 17.643 25.366 17.403 25.18 17.109C24.994 16.809 24.859 16.476 24.775 16.11C24.691 15.738 24.649 15.369 24.649 15.003C24.649 14.637 24.691 14.271 24.775 13.905C24.859 13.533 24.994 13.2 25.18 12.906C25.366 12.612 25.603 12.372 25.891 12.186C26.179 12 26.53 11.907 26.944 11.907C27.352 11.907 27.7 12 27.988 12.186C28.282 12.372 28.519 12.612 28.699 12.906C28.885 13.2 29.02 13.533 29.104 13.905C29.194 14.271 29.239 14.637 29.239 15.003C29.239 15.369 29.194 15.738 29.104 16.11C29.02 16.476 28.885 16.809 28.699 17.109C28.519 17.403 28.282 17.643 27.988 17.829C27.7 18.015 27.352 18.108 26.944 18.108ZM26.944 17.442C27.232 17.442 27.472 17.373 27.664 17.235C27.862 17.091 28.021 16.905 28.141 16.677C28.261 16.443 28.345 16.182 28.393 15.894C28.447 15.6 28.474 15.303 28.474 15.003C28.474 14.703 28.447 14.409 28.393 14.121C28.345 13.827 28.261 13.566 28.141 13.338C28.021 13.11 27.862 12.927 27.664 12.789C27.472 12.645 27.232 12.573 26.944 12.573C26.656 12.573 26.413 12.645 26.215 12.789C26.023 12.927 25.867 13.11 25.747 13.338C25.627 13.566 25.54 13.827 25.486 14.121C25.438 14.409 25.414 14.703 25.414 15.003C25.414 15.303 25.438 15.6 25.486 15.894C25.54 16.182 25.627 16.443 25.747 16.677C25.867 16.905 26.023 17.091 26.215 17.235C26.413 17.373 26.656 17.442 26.944 17.442Z" fill="#FFD700"/>
<path d="M17.9012 18H17.7012V18.2H17.9012V18ZM17.9012 12.987H18.1012V12.4849L17.756 12.8495L17.9012 12.987ZM16.9382 14.004L16.7954 14.144L16.9407 14.2922L17.0834 14.1415L16.9382 14.004ZM16.4882 13.545L16.3447 13.4057L16.2088 13.5457L16.3454 13.685L16.4882 13.545ZM17.9912 11.997V11.797H17.9066L17.8477 11.8577L17.9912 11.997ZM18.6482 11.997H18.8482V11.797H18.6482V11.997ZM18.6482 18V18.2H18.8482V18H18.6482ZM18.1012 18V12.987H17.7012V18H18.1012ZM17.756 12.8495L16.793 13.8665L17.0834 14.1415L18.0464 13.1245L17.756 12.8495ZM17.081 13.864L16.631 13.405L16.3454 13.685L16.7954 14.144L17.081 13.864ZM16.6317 13.6843L18.1347 12.1363L17.8477 11.8577L16.3447 13.4057L16.6317 13.6843ZM17.9912 12.197H18.6482V11.797H17.9912V12.197ZM18.4482 11.997V18H18.8482V11.997H18.4482ZM18.6482 17.8H17.9012V18.2H18.6482V17.8ZM19.61 18H19.41V18.2H19.61V18ZM19.61 17.406L19.4862 17.249L19.41 17.309V17.406H19.61ZM21.041 16.254L21.1684 16.4082L21.1697 16.4071L21.041 16.254ZM22.085 15.291L22.2294 15.4295L22.2307 15.428L22.085 15.291ZM22.724 14.454L22.8987 14.5515L22.8996 14.5498L22.724 14.454ZM22.832 13.176L23.0093 13.0835V13.0835L22.832 13.176ZM22.544 12.834L22.4201 12.991L22.424 12.994L22.544 12.834ZM22.148 12.636L22.0941 12.8286L22.0941 12.8286L22.148 12.636ZM20.06 13.329L19.9159 13.4677L20.0776 13.6357L20.219 13.4503L20.06 13.329ZM19.601 12.852L19.4406 12.7325L19.3393 12.8685L19.4569 12.9907L19.601 12.852ZM20.492 12.15L20.4122 11.9666L20.4111 11.9671L20.492 12.15ZM22.427 12.015L22.3696 12.2066L22.427 12.015ZM23.066 12.339L22.9436 12.4972L22.946 12.499L23.066 12.339ZM23.525 12.888L23.3471 12.9794L23.3491 12.9831L23.525 12.888ZM23.48 14.58L23.3011 14.4906L23.3004 14.492L23.48 14.58ZM22.868 15.471L22.7179 15.3389L22.7177 15.3391L22.868 15.471ZM21.95 16.38L22.0808 16.5313L22.0823 16.53L21.95 16.38ZM20.789 17.334L20.6655 17.1767L20.2108 17.534H20.789V17.334ZM23.732 17.334H23.932V17.134H23.732V17.334ZM23.732 18V18.2H23.932V18H23.732ZM19.81 18V17.406H19.41V18H19.81ZM19.7339 17.563C20.2748 17.1363 20.753 16.7514 21.1684 16.4082L20.9136 16.0998C20.5011 16.4406 20.0253 16.8237 19.4862 17.249L19.7339 17.563ZM21.1697 16.4071C21.5875 16.0559 21.9411 15.73 22.2294 15.4294L21.9407 15.1526C21.6649 15.44 21.3225 15.7561 20.9123 16.1009L21.1697 16.4071ZM22.2307 15.428C22.5199 15.1203 22.7442 14.8281 22.8987 14.5515L22.5494 14.3565C22.4158 14.5959 22.2141 14.8617 21.9393 15.154L22.2307 15.428ZM22.8996 14.5498C23.057 14.2613 23.14 13.9676 23.14 13.671H22.74C22.74 13.8904 22.6791 14.1187 22.5484 14.3582L22.8996 14.5498ZM23.14 13.671C23.14 13.4542 23.0993 13.256 23.0093 13.0835L22.6547 13.2685C22.7087 13.372 22.74 13.5038 22.74 13.671H23.14ZM23.0093 13.0835C22.9241 12.92 22.8088 12.7826 22.664 12.674L22.424 12.994C22.5192 13.0654 22.596 13.156 22.6547 13.2685L23.0093 13.0835ZM22.668 12.677C22.5317 12.5695 22.3755 12.492 22.2019 12.4434L22.0941 12.8286C22.2205 12.864 22.3283 12.9185 22.4201 12.991L22.668 12.677ZM22.202 12.4434C22.0344 12.3965 21.8632 12.373 21.689 12.373V12.773C21.8268 12.773 21.9617 12.7915 22.0941 12.8286L22.202 12.4434ZM21.689 12.373C21.3031 12.373 20.9536 12.4471 20.6456 12.6011L20.8245 12.9589C21.0684 12.8369 21.3549 12.773 21.689 12.773V12.373ZM20.6456 12.6011C20.3444 12.7517 20.0949 12.9536 19.901 13.2077L20.219 13.4503C20.3731 13.2484 20.5736 13.0843 20.8245 12.9589L20.6456 12.6011ZM20.2041 13.1903L19.7451 12.7133L19.4569 12.9907L19.9159 13.4677L20.2041 13.1903ZM19.7614 12.9715C19.9678 12.6945 20.2369 12.4817 20.573 12.3329L20.4111 11.9671C20.0152 12.1423 19.6902 12.3975 19.4406 12.7325L19.7614 12.9715ZM20.5719 12.3334C20.9174 12.1829 21.2891 12.107 21.689 12.107V11.707C21.2369 11.707 20.8106 11.7931 20.4122 11.9666L20.5719 12.3334ZM21.689 12.107C21.9217 12.107 22.1483 12.1402 22.3696 12.2066L22.4845 11.8234C22.2257 11.7458 21.9604 11.707 21.689 11.707V12.107ZM22.3696 12.2066C22.5876 12.272 22.7782 12.3691 22.9436 12.4971L23.1885 12.1809C22.9818 12.0209 22.7465 11.902 22.4845 11.8234L22.3696 12.2066ZM22.946 12.499C23.1128 12.6241 23.2464 12.7832 23.3471 12.9794L23.7029 12.7966C23.5757 12.5488 23.4033 12.3419 23.186 12.179L22.946 12.499ZM23.3491 12.9831C23.4506 13.1708 23.505 13.3979 23.505 13.671H23.905C23.905 13.3441 23.8395 13.0492 23.701 12.7929L23.3491 12.9831ZM23.505 13.671C23.505 13.9431 23.4386 14.2156 23.3011 14.4906L23.6589 14.6694C23.8214 14.3444 23.905 14.0109 23.905 13.671H23.505ZM23.3004 14.492C23.1657 14.767 22.9726 15.0494 22.7179 15.3389L23.0182 15.6031C23.2914 15.2926 23.5063 14.981 23.6596 14.668L23.3004 14.492ZM22.7177 15.3391C22.4663 15.6255 22.1666 15.9225 21.8178 16.23L22.0823 16.53C22.4414 16.2135 22.7537 15.9045 23.0183 15.6029L22.7177 15.3391ZM21.8192 16.2287C21.4679 16.5324 21.0833 16.8484 20.6655 17.1767L20.9126 17.4913C21.3347 17.1596 21.7242 16.8396 22.0808 16.5313L21.8192 16.2287ZM20.789 17.534H23.732V17.134H20.789V17.534ZM23.532 17.334V18H23.932V17.334H23.532ZM23.732 17.8H19.61V18.2H23.732V17.8ZM25.891 17.829L25.9995 17.661L25.891 17.829ZM25.18 17.109L25.0101 17.2144L25.011 17.2159L25.18 17.109ZM24.775 16.11L24.5799 16.1541L24.5801 16.1547L24.775 16.11ZM24.775 13.905L24.97 13.9497L24.9701 13.9491L24.775 13.905ZM25.18 12.906L25.011 12.7991L25.18 12.906ZM27.988 12.186L27.8795 12.354L27.8811 12.355L27.988 12.186ZM28.699 12.906L28.5285 13.0104L28.53 13.0129L28.699 12.906ZM29.104 13.905L28.9089 13.9491L28.9098 13.9528L29.104 13.905ZM29.104 16.11L28.9096 16.063L28.9091 16.0653L29.104 16.11ZM28.699 17.109L28.5291 17.0036L28.5285 17.0046L28.699 17.109ZM27.988 17.829L27.8811 17.66L27.8795 17.661L27.988 17.829ZM27.664 17.235L27.7808 17.3974L27.7817 17.3967L27.664 17.235ZM28.141 16.677L28.318 16.7702L28.319 16.7683L28.141 16.677ZM28.393 15.894L28.1963 15.8579L28.1958 15.8611L28.393 15.894ZM28.393 14.121L28.1956 14.1532L28.1965 14.1579L28.393 14.121ZM28.141 13.338L27.9641 13.4311V13.4311L28.141 13.338ZM27.664 12.789L27.544 12.9491L27.5497 12.9531L27.664 12.789ZM26.215 12.789L26.3318 12.9514L26.3327 12.9507L26.215 12.789ZM25.747 13.338L25.924 13.4311V13.4311L25.747 13.338ZM25.486 14.121L25.2893 14.0849L25.2888 14.0881L25.486 14.121ZM25.486 15.894L25.2886 15.9262L25.2895 15.9309L25.486 15.894ZM25.747 16.677L25.5691 16.7683L25.5701 16.7701L25.747 16.677ZM26.215 17.235L26.095 17.3951L26.1007 17.3991L26.215 17.235ZM26.944 17.908C26.5605 17.908 26.249 17.8221 25.9995 17.661L25.7825 17.997C26.109 18.2079 26.4996 18.308 26.944 18.308V17.908ZM25.9995 17.661C25.7363 17.491 25.5198 17.2719 25.3491 17.0021L25.011 17.2159C25.2123 17.5341 25.4698 17.795 25.7825 17.997L25.9995 17.661ZM25.35 17.0036C25.1763 16.7235 25.0494 16.4112 24.97 16.0653L24.5801 16.1547C24.6687 16.5408 24.8117 16.8945 25.0101 17.2144L25.35 17.0036ZM24.9701 16.0659C24.8893 15.7078 24.849 15.3536 24.849 15.003H24.449C24.449 15.3844 24.4928 15.7682 24.58 16.1541L24.9701 16.0659ZM24.849 15.003C24.849 14.6524 24.8893 14.3014 24.97 13.9497L24.5801 13.8603C24.4928 14.2406 24.449 14.6216 24.449 15.003H24.849ZM24.9701 13.9491C25.0496 13.5972 25.1764 13.2858 25.3491 13.0129L25.011 12.7991C24.8117 13.1142 24.6685 13.4688 24.58 13.8609L24.9701 13.9491ZM25.3491 13.0129C25.5198 12.7431 25.7363 12.524 25.9995 12.354L25.7825 12.018C25.4698 12.22 25.2123 12.4809 25.011 12.7991L25.3491 13.0129ZM25.9995 12.354C26.249 12.1929 26.5605 12.107 26.944 12.107V11.707C26.4996 11.707 26.109 11.8071 25.7825 12.018L25.9995 12.354ZM26.944 12.107C27.321 12.107 27.6296 12.1926 27.8795 12.354L28.0965 12.018C27.7705 11.8074 27.3831 11.707 26.944 11.707V12.107ZM27.8811 12.355C28.1495 12.5248 28.3646 12.7428 28.5285 13.0104L28.8696 12.8016C28.6735 12.4812 28.4146 12.2192 28.095 12.017L27.8811 12.355ZM28.53 13.0129C28.7027 13.2858 28.8295 13.5972 28.909 13.9491L29.2991 13.8609C29.2106 13.4688 29.0674 13.1142 28.8681 12.7991L28.53 13.0129ZM28.9098 13.9528C28.9961 14.3036 29.039 14.6536 29.039 15.003H29.439C29.439 14.6204 29.392 14.2384 29.2983 13.8572L28.9098 13.9528ZM29.039 15.003C29.039 15.3524 28.9961 15.7057 28.9096 16.063L29.2984 16.157C29.392 15.7703 29.439 15.3856 29.439 15.003H29.039ZM28.9091 16.0653C28.8297 16.4112 28.7027 16.7235 28.5291 17.0036L28.869 17.2144C29.0673 16.8945 29.2104 16.5408 29.299 16.1547L28.9091 16.0653ZM28.5285 17.0046C28.3646 17.2722 28.1495 17.4902 27.8811 17.66L28.095 17.998C28.4146 17.7958 28.6735 17.5338 28.8696 17.2134L28.5285 17.0046ZM27.8795 17.661C27.6296 17.8224 27.321 17.908 26.944 17.908V18.308C27.3831 18.308 27.7705 18.2076 28.0965 17.997L27.8795 17.661ZM26.944 17.642C27.2646 17.642 27.5479 17.5648 27.7808 17.3974L27.5473 17.0726C27.3962 17.1812 27.1995 17.242 26.944 17.242V17.642ZM27.7817 17.3967C28.0057 17.2338 28.1845 17.0238 28.318 16.7701L27.9641 16.5839C27.8576 16.7862 27.7183 16.9482 27.5464 17.0733L27.7817 17.3967ZM28.319 16.7683C28.4494 16.514 28.5393 16.233 28.5903 15.9269L28.1958 15.8611C28.1508 16.131 28.0727 16.372 27.9631 16.5857L28.319 16.7683ZM28.5897 15.9301C28.6459 15.6242 28.674 15.3151 28.674 15.003H28.274C28.274 15.2909 28.2481 15.5758 28.1963 15.8579L28.5897 15.9301ZM28.674 15.003C28.674 14.6909 28.6459 14.3846 28.5896 14.0841L28.1965 14.1579C28.2481 14.4334 28.274 14.7151 28.274 15.003H28.674ZM28.5904 14.0888C28.5395 13.7768 28.4495 13.4946 28.318 13.2449L27.9641 13.4311C28.0726 13.6374 28.1506 13.8772 28.1957 14.1532L28.5904 14.0888ZM28.318 13.2449C28.1842 12.9905 28.0044 12.7824 27.7784 12.6249L27.5497 12.9531C27.7197 13.0716 27.8579 13.2295 27.9641 13.4311L28.318 13.2449ZM27.784 12.629C27.5509 12.4542 27.2664 12.373 26.944 12.373V12.773C27.1977 12.773 27.3932 12.8358 27.544 12.949L27.784 12.629ZM26.944 12.373C26.6215 12.373 26.3353 12.4542 26.0974 12.6273L26.3327 12.9507C26.4908 12.8358 26.6906 12.773 26.944 12.773V12.373ZM26.0983 12.6266C25.8789 12.7843 25.7032 12.9919 25.5701 13.2449L25.924 13.4311C26.0309 13.2281 26.1672 13.0697 26.3318 12.9514L26.0983 12.6266ZM25.5701 13.2449C25.4393 13.4934 25.3464 13.7741 25.2893 14.0849L25.6827 14.1571C25.7337 13.8799 25.8148 13.6386 25.924 13.4311L25.5701 13.2449ZM25.2888 14.0881C25.2389 14.3873 25.214 14.6923 25.214 15.003H25.614C25.614 14.7137 25.6372 14.4307 25.6833 14.1539L25.2888 14.0881ZM25.214 15.003C25.214 15.3137 25.2389 15.6215 25.2887 15.9262L25.6834 15.8618C25.6372 15.5785 25.614 15.2923 25.614 15.003H25.214ZM25.2895 15.9309C25.3466 16.2357 25.4393 16.5153 25.5691 16.7683L25.925 16.5857C25.8147 16.3707 25.7335 16.1283 25.6826 15.8571L25.2895 15.9309ZM25.5701 16.7701C25.7028 17.0224 25.8776 17.2319 26.095 17.395L26.335 17.075C26.1685 16.9501 26.0313 16.7876 25.924 16.5839L25.5701 16.7701ZM26.1007 17.3991C26.3383 17.5647 26.6232 17.642 26.944 17.642V17.242C26.6889 17.242 26.4878 17.1813 26.3294 17.0709L26.1007 17.3991Z" fill="#FAD201" mask="url(#path-2-outside-1_176_1083)"/>
</g>
<circle cx="23" cy="23" r="21" stroke="#B638FC" stroke-width="4"/>
<defs>
<filter id="filter0_d_176_1083" x="12.4883" y="11.9072" width="20.75" height="14.2007" filterUnits="userSpaceOnUse" color-interpolation-filters="sRGB">
<feFlood flood-opacity="0" result="BackgroundImageFix"/>
<feColorMatrix in="SourceAlpha" type="matrix" values="0 0 0 0 0 0 0 0 0 0 0 0 0 0 0 0 0 0 127 0" result="hardAlpha"/>
<feOffset dy="4"/>
<feGaussianBlur stdDeviation="2"/>
<feComposite in2="hardAlpha" operator="out"/>
<feColorMatrix type="matrix" values="0 0 0 0 0 0 0 0 0 0 0 0 0 0 0 0 0 0 0.25 0"/>
<feBlend mode="normal" in2="BackgroundImageFix" result="effect1_dropShadow_176_1083"/>
<feBlend mode="normal" in="SourceGraphic" in2="effect1_dropShadow_176_1083" result="shape"/>
</filter>
</defs>
</svg>
