<svg xmlns="http://www.w3.org/2000/svg" width="95" height="108" fill="none"><g clip-path="url(#a)"><path fill="#7D8592" fill-rule="evenodd" d="M43.842 24.244c14.847 0 26.88 11.789 26.88 26.329q-.001.545-.024 1.082a16.6 16.6 0 0 0-7.94-2.005c-9.066 0-16.413 7.198-16.413 16.075 0 3.978 1.473 7.613 3.917 10.42a27.6 27.6 0 0 1-8.996.634L30.05 84.447V73.172c-7.838-4.596-13.094-12.998-13.094-22.605 0-14.54 12.034-26.328 26.88-26.328zm20.564 29.737c-7.582 0-13.732 6.021-13.732 13.451 0 7.425 6.15 13.446 13.732 13.446.442 0 .884-.022 1.316-.055l5.727 3.917v-5.762c4.005-2.348 6.685-6.64 6.685-11.546 0-7.43-6.15-13.451-13.733-13.451z" clip-rule="evenodd"/></g><defs><clipPath id="a"><path fill="#fff" d="M16.959 24.244h61.176v60.49H16.959z"/></clipPath></defs></svg>