<svg xmlns="http://www.w3.org/2000/svg" width="150" height="150" fill="none"><g clip-path="url(#a)"><path fill="#fff" d="M124.108 24.535c3.243 1.783 5.105 4.29 5.485 6.904.401 2.615-.7 5.323-3.363 7.495l-15.635 12.75c3.203.067 6.386.805 9.028 2.266 3.184 1.756 5.005 4.21 5.386 6.77l.02.161c.24 1.985-.381 4.01-1.902 5.806 3.283.027 6.566.764 9.289 2.266 3.183 1.756 5.005 4.21 5.385 6.77.321 2.226-.44 4.532-2.382 6.503 3.223.053 6.466.79 9.149 2.266 3.183 1.756 5.005 4.21 5.385 6.77.381 2.561-.701 5.216-3.323 7.347-9.529 7.777-19.679 16.813-29.649 24.16-8.188 6.462-17.757 9.13-27.207 11.772-5.185 1.448-10.35 2.882-14.954 4.893l-10.791 8.795c-1.281 1.046-3.103 1.65-4.985 1.77-1.902.121-3.844-.228-5.405-1.086l-50.95-28.007c-1.562-.859-2.462-2.079-2.643-3.339-.18-1.274.34-2.574 1.622-3.62l10.63-8.661c2.903-8.42 3.324-17.268 3.704-25.93.44-9.451.86-18.676 4.444-27.162 1.241-2.91 3.604-5.122 6.507-6.583 2.502-1.26 5.425-1.958 8.368-2.065h.24c2.883-.08 5.806.416 8.408 1.475 3.023 1.233 5.626 3.244 7.267 6.06 1.622 2.748 2.543 5.872 2.903 9.331.16 1.596.22 3.258.16 5.001l48.328-39.417c2.662-2.172 6.406-3.419 10.29-3.674 3.904-.268 7.948.47 11.191 2.253zM20.166 17.737c-1.421.51-3.183.148-3.944-.804-.76-.952-.22-2.132 1.201-2.642 9.67-3.432 19.6-5.363 29.79-5.684 8.508-.268 17.176.59 25.985 2.64l-3.043-8.861c-.36-1.046.62-2.092 2.182-2.333s3.123.415 3.483 1.461l4.245 12.375.02.04v.054l.02.027v.04l.02.134v.04c.04.309-.04.617-.22.925l-.02.04-.04.068-.02.027-.06.066-.02.014-.02.013-.06.054v.013l-.02.014-.02.013v.014l-.04.026-.02.027-.02.014-.02.013-.02.027-.06.053-.02.014-.101.067-.04.027-.02.013-.02.014-.2.107-.02.013-.1.054-.06.027-13.694 6.878c-1.281.643-3.103.482-4.084-.39-.96-.857-.72-2.077.58-2.734l9.61-4.827c-8.128-1.89-16.056-2.695-23.823-2.453-9.29.294-18.398 2.078-27.307 5.242zm82.921 40.06L84.009 73.365c-1.021.83-2.863.951-4.105.268-1.24-.684-1.42-1.918-.4-2.749l19.079-15.566 1.882-1.528 21.281-17.349c1.641-1.34 2.322-3.017 2.082-4.625-.241-1.61-1.382-3.165-3.384-4.264s-4.504-1.555-6.907-1.394c-2.402.16-4.724.925-6.366 2.265L53.098 72.52c-.6.483-1.541.764-2.542.697-1.602-.107-2.763-1.06-2.603-2.132.56-3.807.741-7.307.42-10.47-.32-3.071-1.12-5.806-2.502-8.166-1.14-1.97-2.903-3.338-4.885-4.156-1.601-.657-3.363-.952-5.105-.912l-.18.014c-1.822.067-3.623.496-5.185 1.287-1.942.979-3.543 2.494-4.404 4.532-3.403 8.017-3.824 17-4.224 26.21-.4 8.97-.821 18.14-3.984 27.03-.08.335-.28.643-.62.925l-11.032 9.009c-.26.215-.38.496-.34.751s.22.523.56.697l50.95 28.008c.32.174.741.255 1.122.228.38-.027.76-.161 1.04-.375l11.031-9.01c.18-.148.4-.268.641-.376 5.285-2.346 10.79-3.888 16.336-5.429 8.829-2.467 17.777-4.961 25.025-10.686 9.969-7.937 19.719-16.089 29.549-24.106 1.601-1.3 2.242-2.923 2.021-4.478-.22-1.556-1.341-3.057-3.283-4.13s-4.364-1.501-6.686-1.354c-2.282.148-4.505.872-6.086 2.132l-.08.067-15.235 12.429c-1.021.831-2.863.951-4.104.268-1.241-.684-1.422-1.918-.401-2.749l15.235-12.428 3.243-2.642 3.244-2.64c1.581-1.301 2.242-2.924 2.022-4.479s-1.342-3.057-3.284-4.13-4.364-1.5-6.686-1.353c-2.282.147-4.505.871-6.086 2.131l-.08.067-15.575 12.697c-1.021.831-2.863.952-4.105.268-1.24-.683-1.42-1.917-.4-2.748l15.575-12.697 2.923-2.373 2.923-2.373c1.542-1.26 2.222-2.829 2.042-4.357l-.02-.121c-.22-1.555-1.341-3.057-3.283-4.13s-4.364-1.501-6.687-1.354c-2.282.148-4.504.872-6.086 2.132l-.08.067z"/></g><defs><clipPath id="a"><path fill="#fff" d="M0 0h150v150H0z"/></clipPath></defs></svg>