<svg xmlns="http://www.w3.org/2000/svg" width="48" height="58" fill="none"><g clip-path="url(#a)"><path fill="#FFE258" d="M24.001 8.92c6.596 0 12.579 2.702 16.894 7.09 4.316 4.388 7.013 10.437 7.013 17.08a24.23 24.23 0 0 1-7.013 17.08c-4.315 4.389-10.298 7.09-16.894 7.09S11.422 54.56 7.107 50.17A24.25 24.25 0 0 1 .094 33.09H8.97c0 4.19 1.692 7.983 4.39 10.735a14.87 14.87 0 0 0 10.617 4.437c4.143 0 7.895-1.71 10.617-4.437h.024a15.22 15.22 0 0 0 4.39-10.735c0-4.214-1.668-8.007-4.39-10.734h-.024a14.87 14.87 0 0 0-10.617-4.437v8.18L4.213 13.433 23.977.764v8.18z"/></g><defs><clipPath id="a"><path fill="#fff" d="M.088.739h47.826v56.522H.088z"/></clipPath></defs></svg>