<svg xmlns="http://www.w3.org/2000/svg" width="116" height="42" fill="none"><path fill="#454545" d="M34.16 7.64c3.136.864 6.368 1.856 9.088 3.008-.8.736-1.6 1.408-2.432 2.016a389 389 0 0 0 .032 22.016c-2.016 1.76-4.256 3.296-6.656 4.608-2.304-.352-4.512-1.12-6.176-2.048a32 32 0 0 1 3.904-3.072c1.248.64 2.784 1.216 4.416 1.664.192-7.04.192-14.112-.032-21.12.672-.48 1.376-.928 2.08-1.376-2.496-.992-5.344-1.856-8.128-2.624A32 32 0 0 1 34.16 7.64m16.423 27.904c-1.825-.448-3.872-1.088-5.632-1.856-.193-4.736-.224-9.728-.032-14.464 1.824-1.376 4.32-2.944 6.24-3.968 2.111.448 4.255 1.248 5.888 2.24.256 4.256.288 9.6.096 13.984-1.537 1.28-4.385 3.04-6.56 4.064M48.95 18.616c-.096 3.584-.064 7.264.032 10.88.032 1.28.193 1.536 1.185 1.92.831.32 1.855.64 2.944.928.128-3.52.064-7.456-.096-10.816-.032-.896-.193-1.28-1.153-1.76-.895-.448-1.824-.8-2.912-1.152m21.41 16.928c-.544-.224-1.216-.64-1.792-1.056-.352-2.72.16-7.072.16-7.456 0-.512-1.088-1.056-3.68-1.76 0 2.912.064 5.792.128 8.672-1.28.608-2.976 1.216-4.416 1.6.128-4.608.16-9.216.16-13.824 0-7.008-.032-9.984-.224-13.44.48.096 1.088.32 1.536.512 1.024-.448 2.208-.928 3.2-1.216-.288 3.2-.416 6.24-.416 11.968v4.608c2.496-2.176 3.392-3.232 3.392-3.776 0-.48-.544-1.088-2.048-2.368a16.3 16.3 0 0 1 3.872-2.72c1.152.8 2.464 2.144 3.296 3.36-1.12 1.12-2.72 2.432-5.152 4.064 1.696.48 3.488 1.216 4.448 1.888-.352 2.368-.352 5.376-.224 6.336.096.736.288.928 1.856 1.76a20.8 20.8 0 0 1-4.096 2.848m15.531 0c-.544-.224-1.216-.64-1.792-1.056-.352-2.72.16-7.072.16-7.456 0-.512-1.088-1.056-3.68-1.76 0 2.912.064 5.792.128 8.672-1.28.608-2.976 1.216-4.416 1.6.128-4.608.16-9.216.16-13.824 0-7.008-.032-9.984-.224-13.44.48.096 1.088.32 1.536.512 1.024-.448 2.208-.928 3.2-1.216-.288 3.2-.416 6.24-.416 11.968v4.608c2.496-2.176 3.392-3.232 3.392-3.776 0-.48-.544-1.088-2.048-2.368a16.3 16.3 0 0 1 3.872-2.72c1.152.8 2.464 2.144 3.296 3.36-1.12 1.12-2.72 2.432-5.152 4.064 1.696.48 3.488 1.216 4.448 1.888-.352 2.368-.352 5.376-.224 6.336.096.736.288.928 1.856 1.76a20.8 20.8 0 0 1-4.096 2.848m12.395 0c-1.984-.64-4.287-1.696-6.24-2.848-.352-5.76-.352-10.272-.064-13.664 2.209-1.408 4.64-2.752 7.04-3.808 1.505 1.632 3.041 4.288 3.969 6.976-1.408 1.472-4.448 3.648-7.008 5.184l.031 1.024c.065 1.504.16 1.696 1.6 2.432.992.512 3.041 1.28 4.801 1.856-1.312 1.088-2.657 2.048-4.129 2.848m-2.4-10.464c2.433-.8 2.945-1.088 2.945-1.408 0-.576-1.312-3.296-2.849-5.248-.096 1.888-.127 4.224-.096 6.656m15.976-9.728c1.376.672 2.848 1.792 3.808 2.848-.544 1.28-1.728 3.392-2.432 4.352-.928-1.056-2.4-2.304-3.744-3.232 0 4.032.064 7.136.096 10.016 0 1.312.352 1.632 3.68 3.36a21.3 21.3 0 0 1-4.096 2.848c-1.824-.864-3.296-1.824-4.128-2.624.288-2.528.352-6.08.352-12.192-.448-.768-1.6-1.984-2.304-2.528 1.12-1.088 2.624-2.112 4.096-2.848a13.5 13.5 0 0 1 2.272 2.816c.608-.896 1.632-2.08 2.4-2.816"/><g clip-path="url(#a)"><path fill="#EB4E4E" d="m25.183 13.538-11.836-3.492c-.603-.178-1.181-.012-1.292.37L5.944 31.447c-.111.382.287.836.89 1.014l11.836 3.492c.602.178 1.18.012 1.292-.37l6.111-21.032c.111-.382-.288-.836-.89-1.014"/><path fill="#7D8592" fill-rule="evenodd" d="m7.192 10.697 3.751.099-5.369 18.477.452-17.46a1.144 1.144 0 0 1 1.166-1.116M.844 13.049l3.9-1.05-.248 19.28L.038 14.451a1.15 1.15 0 0 1 .806-1.402" clip-rule="evenodd"/><path fill="#fff" fill-rule="evenodd" d="M16.704 20.826c-.029-1.207-.662-1.963-1.64-2.141-1.312-.24-2.201.692-2.13 1.909.117 2.023 1.798 4.111 1.986 6.37 1.368-1.8 3.9-2.645 5.083-4.284.71-.987.46-2.254-.773-2.766-.92-.382-1.856-.09-2.526.912" clip-rule="evenodd"/></g><defs><clipPath id="a"><path fill="#fff" d="M0 10h26v26H0z"/></clipPath></defs></svg>