<svg xmlns="http://www.w3.org/2000/svg" width="95" height="108" fill="none"><g clip-path="url(#a)"><path fill="#7D8592" fill-rule="evenodd" d="M20.941 55.708h18.426a27 27 0 0 0-1.017 7.378c0 4.143.919 8.028 2.533 11.417v4.319H20.94zm37.85-9.743c8.169 0 14.786 7.666 14.786 17.12 0 2.666-.526 5.198-1.471 7.45l6.885 6.086c1.221 1.075 1.453 3.11.526 4.526-.928 1.415-2.685 1.684-3.906.61l-6.832-6.035c-2.63 2.79-6.136 4.495-9.988 4.495-8.17 0-14.787-7.667-14.787-17.121s6.618-17.12 14.787-17.12zm0 7.377c4.646 0 8.41 4.36 8.41 9.744s-3.764 9.743-8.41 9.743-8.41-4.36-8.41-9.743 3.763-9.744 8.41-9.744M48.579 24.246H68.52v18.02c-2.889-1.819-6.207-2.852-9.73-2.852-3.718 0-7.205 1.147-10.21 3.162v-18.34zm-27.629 0h19.942V47.36H20.95z" clip-rule="evenodd"/></g><defs><clipPath id="a"><path fill="#fff" d="M20.941 24.244h59.137v58.163H20.941z"/></clipPath></defs></svg>