<svg xmlns="http://www.w3.org/2000/svg" width="94" height="108" fill="none"><g clip-path="url(#a)"><path fill="#7D8592" fill-rule="evenodd" d="M47.088 24.253c7.196 0 13.02 7.98 13.02 17.827 0 6.177-2.3 11.608-5.768 14.821 7.678 2.591 13.13 9.204 13.13 16.936 0 1.99-.352 3.897-1.02 5.68-5.897 1.865-12.444 2.902-19.362 2.902s-13.465-1.037-19.363-2.902a16.1 16.1 0 0 1-1.02-5.68c0-7.732 5.453-14.324 13.131-16.936-3.487-3.192-5.768-8.644-5.768-14.821 0-9.846 5.824-17.827 13.02-17.827" clip-rule="evenodd"/></g><defs><clipPath id="a"><path fill="#fff" d="M26.705 24.244H67.49v58.163H26.705z"/></clipPath></defs></svg>