<svg xmlns="http://www.w3.org/2000/svg" width="94" height="108" fill="none"><g clip-path="url(#a)"><path fill="#EB4E4E" d="M71.745 32.476 47.61 24.351c-1.229-.413-2.409-.029-2.635.86L32.513 74.145c-.227.888.586 1.943 1.815 2.357l24.136 8.125c1.229.414 2.408.029 2.634-.86l12.463-48.933c.226-.889-.587-1.944-1.816-2.358"/><path fill="#7D8592" fill-rule="evenodd" d="m35.058 25.866 7.648.23-10.948 42.988.921-40.623c.034-1.465 1.104-2.633 2.379-2.595M22.113 31.337l7.953-2.441-.505 44.855L20.47 34.6c-.33-1.417.41-2.885 1.642-3.264" clip-rule="evenodd"/><path fill="#fff" fill-rule="evenodd" d="M54.454 49.43c-.059-2.808-1.348-4.566-3.343-4.98-2.677-.558-4.49 1.61-4.345 4.44.24 4.707 3.666 9.566 4.051 14.82 2.788-4.186 7.954-6.152 10.364-9.967 1.449-2.294.94-5.243-1.575-6.434-1.875-.888-3.786-.207-5.152 2.122" clip-rule="evenodd"/></g><defs><clipPath id="a"><path fill="#fff" d="M20.393 24.244h53.02v60.49h-53.02z"/></clipPath></defs></svg>