<svg xmlns="http://www.w3.org/2000/svg" width="22" height="26" fill="none"><g clip-path="url(#a)"><path fill="#FFE258" d="M11 3.763c3.034 0 5.786 1.243 7.77 3.262a11.2 11.2 0 0 1 3.227 7.857c0 3.056-1.23 5.838-3.226 7.857A10.87 10.87 0 0 1 10.999 26a10.87 10.87 0 0 1-7.771-3.261 11.16 11.16 0 0 1-3.226-7.857h4.083c0 1.927.778 3.672 2.02 4.937a6.84 6.84 0 0 0 4.883 2.042 6.9 6.9 0 0 0 4.884-2.042h.011a7 7 0 0 0 2.02-4.937 6.95 6.95 0 0 0-2.02-4.938h-.011a6.84 6.84 0 0 0-4.884-2.041v3.763L1.897 5.839 10.988.01v3.764z"/></g><defs><clipPath id="a"><path fill="#fff" d="M0 0h22v26H0z"/></clipPath></defs></svg>