<svg xmlns="http://www.w3.org/2000/svg" width="150" height="150" fill="none"><g clip-path="url(#a)"><path fill="#fff" d="M5.598 36.64c2.997-1.776 6.607-2.38 10.005-1.912s6.584 1.99 8.731 4.468L36.96 53.75c.803-2.224 2.478-4.253 4.932-5.717 2.95-1.736 6.49-2.341 9.817-1.873l.212.04c2.572.39 5.003 1.384 6.914 2.965.78-2.302 2.478-4.41 5.003-5.892 2.95-1.737 6.49-2.342 9.817-1.874 2.903.39 5.64 1.58 7.693 3.493.802-2.263 2.478-4.312 4.956-5.775 2.95-1.737 6.489-2.342 9.816-1.873 3.328.448 6.442 1.95 8.566 4.39 7.693 8.897 16.849 18.555 23.905 27.608 6.324 7.57 7.551 15.043 8.731 22.418.661 4.058 1.298 8.077 2.808 11.882l8.708 10.048c1.038 1.19 1.392 2.634 1.109 4-.283 1.365-1.18 2.634-2.619 3.492l-47.125 27.92c-1.44.859-3.186 1.151-4.838.917s-3.186-.975-4.224-2.165l-8.566-9.893c-10.005-4.409-21.144-7.18-32.046-9.892-11.893-2.965-23.503-5.853-33.438-10.75-3.422-1.698-5.687-3.961-6.867-6.419-1.038-2.127-1.25-4.351-.708-6.458l.047-.176c.567-2.049 1.84-3.961 3.8-5.502 2.265-1.776 5.403-3.044 9.32-3.395 3.87-.351 8.024-.136 12.484.585 2.053.332 4.177.761 6.371 1.308L2.53 52.132C.383 49.654-.35 46.668.217 43.859c.543-2.81 2.407-5.444 5.404-7.22zm122.614 1.99c.614 1.053 2.148 1.502 3.422.995s1.817-1.776 1.204-2.83c-4.201-7.16-9.746-13.11-16.731-17.774-5.829-3.902-12.649-6.848-20.507-8.838l9.038-6.458c1.062-.761 1.18-2.107.26-2.985-.921-.878-2.549-.976-3.611-.215L88.686 9.54l-.047.04-.024.019-.023.02-.024.019-.024.02-.023.019-.118.117-.024.02c-.26.253-.472.565-.566.897l-.024.058-.023.078v.02l-.024.097v.43l.024.097v.079l.047.175v.02l.023.077.024.059 4.39 11.902c.4 1.112 1.84 1.756 3.185 1.424s2.124-1.522 1.722-2.634l-3.09-8.35c7.244 1.833 13.497 4.545 18.807 8.077 6.371 4.253 11.445 9.716 15.315 16.33zM43.024 60.755l15.41 17.775c.825.956.566 2.282-.59 2.965-1.157.683-2.761.469-3.587-.487L38.87 63.233l-1.51-1.736-17.18-19.823c-1.321-1.522-3.303-2.478-5.38-2.77-2.1-.294-4.319.077-6.183 1.19-1.84 1.092-2.997 2.73-3.35 4.448-.355 1.736.094 3.57 1.439 5.112l43.632 50.377c.472.566.614 1.288.307 1.99-.495 1.093-1.982 1.639-3.304 1.229-4.696-1.463-9.108-2.575-13.19-3.239-3.965-.644-7.623-.839-10.927-.546-2.76.254-4.908 1.093-6.395 2.263-1.203.937-1.982 2.088-2.336 3.337l-.024.117c-.33 1.307-.188 2.692.449 3.999.802 1.639 2.36 3.181 4.743 4.371 9.392 4.643 20.695 7.453 32.282 10.341 11.28 2.809 22.82 5.677 33.367 10.379a2.7 2.7 0 0 1 1.039.703l8.92 10.282c.212.254.543.41.873.449s.708-.02 1.014-.195l47.126-27.92c.306-.176.495-.449.542-.722a1.04 1.04 0 0 0-.236-.839l-8.92-10.283a1.8 1.8 0 0 1-.33-.565c-1.77-4.371-2.478-8.683-3.186-12.995-1.109-6.887-2.242-13.872-7.858-20.584-7.811-9.228-15.928-18.379-23.857-27.53-1.275-1.482-3.186-2.4-5.216-2.673-2.029-.273-4.176.078-5.97 1.152-1.793 1.053-2.902 2.634-3.233 4.312-.33 1.658.095 3.414 1.322 4.877l.07.078 12.295 14.204c.826.956.566 2.283-.59 2.966s-2.76.468-3.587-.488L83.235 54.297l-2.62-3.024-2.619-3.024c-1.274-1.483-3.186-2.4-5.215-2.673s-4.2.078-5.97 1.15c-1.794 1.055-2.903 2.635-3.233 4.313-.33 1.658.094 3.414 1.321 4.878l.071.078L77.524 70.49c.826.956.566 2.283-.59 2.966s-2.76.468-3.587-.488L60.793 58.473l-2.36-2.712-2.36-2.713c-1.25-1.443-3.09-2.36-5.05-2.653l-.165-.02c-2.029-.273-4.2.078-5.97 1.152-1.793 1.053-2.902 2.634-3.233 4.312-.33 1.658.095 3.414 1.322 4.877l.07.078z"/></g><defs><clipPath id="a"><path fill="#fff" d="M0 0h150v150H0z"/></clipPath></defs></svg>