<svg xmlns="http://www.w3.org/2000/svg" width="41" height="44" fill="none"><g clip-path="url(#a)"><path fill="#FFE258" d="M20.755 6.604c5.508 0 10.504 2.072 14.108 5.436s5.857 8.001 5.857 13.095c0 5.093-2.232 9.73-5.857 13.095-3.604 3.364-8.6 5.436-14.108 5.436S10.25 41.594 6.645 38.23C3.043 34.885.79 30.248.79 25.135h7.413c0 3.212 1.413 6.12 3.665 8.23 2.273 2.109 5.406 3.401 8.867 3.401 3.46 0 6.594-1.311 8.867-3.402h.02c2.253-2.09 3.666-4.998 3.666-8.23 0-3.23-1.393-6.138-3.666-8.228h-.02c-2.273-2.11-5.406-3.402-8.867-3.402v6.271L4.229 10.064 20.734.351v6.271z"/></g><defs><clipPath id="a"><path fill="#fff" d="M.785.333h39.941v43.333H.786z"/></clipPath></defs></svg>