<svg xmlns="http://www.w3.org/2000/svg" width="200" height="200" fill="none"><path fill="#F4F5F7" d="M100 200c55.228 0 100-44.771 100-100S155.228 0 100 0 0 44.772 0 100s44.772 100 100 100"/><path stroke="#292D32" stroke-linecap="round" stroke-linejoin="round" stroke-miterlimit="10" stroke-width="1.5" d="M84.31 131.151H82.07c-17.931 0-26.897-4.47-26.897-26.816V81.988q0-26.816 26.897-26.816h35.862q26.897 0 26.897 26.816v22.347q0 26.816-26.897 26.816h-2.241c-1.39 0-2.735.67-3.587 1.788l-6.724 8.938c-2.958 3.933-7.8 3.933-10.758 0l-6.724-8.938c-.718-.984-2.376-1.788-3.587-1.788"/><path stroke="#292D32" stroke-linecap="round" stroke-linejoin="round" stroke-width="1.5" d="M79.31 82.759h44.828M79.31 105.172h25.862"/></svg>