<svg xmlns="http://www.w3.org/2000/svg" width="100" height="210" fill="none"><g clip-path="url(#a)"><path fill="#FF4458" stroke="#fff" stroke-width=".765" d="m61.746 164.079.255.229.256-.229a8.614 8.614 0 0 1 11.837.327 8.62 8.62 0 0 1 .346 11.821l-12.441 12.459-12.439-12.459a8.617 8.617 0 0 1 12.186-12.148Z"/><g clip-path="url(#b)"><path fill="#FF4458" stroke="#fff" stroke-width=".765" d="m26.75 135.581.254.229.256-.229a8.614 8.614 0 0 1 11.837.327 8.62 8.62 0 0 1 .346 11.821l-12.441 12.459-12.439-12.459a8.618 8.618 0 0 1 12.186-12.148Z"/></g><path fill="#FF4458" stroke="#fff" stroke-width=".765" d="m65.387 78.066.255.229.255-.229a8.615 8.615 0 0 1 11.837.328 8.617 8.617 0 0 1 .347 11.82l-12.442 12.459-12.438-12.459a8.617 8.617 0 0 1 12.186-12.148Z" opacity=".5"/><path fill="#FF4458" stroke="#fff" stroke-width=".765" d="m25.746 57.079.256.229.255-.229a8.614 8.614 0 0 1 11.837.328 8.62 8.62 0 0 1 .346 11.82l-12.441 12.46-12.439-12.46A8.617 8.617 0 0 1 25.746 57.08Z" opacity=".4"/><path fill="#FF4458" stroke="#fff" stroke-width=".765" d="m49.746 31.079.255.229.256-.229a8.614 8.614 0 0 1 11.837.328 8.62 8.62 0 0 1 .346 11.82l-12.441 12.46-12.439-12.46A8.617 8.617 0 0 1 49.746 31.08Z" opacity=".2"/><g clip-path="url(#c)" opacity=".1"><path fill="#FF4458" stroke="#fff" stroke-width=".765" d="m40.75 10.58.254.23.256-.229a8.614 8.614 0 0 1 11.837.327 8.617 8.617 0 0 1 .346 11.821L41.002 35.19l-12.439-12.46a8.618 8.618 0 0 1 12.186-12.148Z"/></g><path fill="#FF4458" stroke="#fff" stroke-width=".765" d="m37.746 114.079.255.229.256-.229a8.614 8.614 0 0 1 11.837.327 8.62 8.62 0 0 1 .346 11.821l-12.441 12.459-12.439-12.459a8.617 8.617 0 0 1 12.186-12.148Z" opacity=".6"/></g><defs><clipPath id="a"><path fill="#fff" d="M0 0h100v210H0z"/></clipPath><clipPath id="b"><path fill="#fff" d="M6 125h36v36H6z"/></clipPath><clipPath id="c"><path fill="#fff" d="M20 0h36v36H20z"/></clipPath></defs></svg>