<svg xmlns="http://www.w3.org/2000/svg" width="326" height="104" fill="none"><g clip-path="url(#a)"><rect width="326" height="104" fill="url(#b)" rx="10"/><path fill="url(#c)" d="M137 50.5C75.395 61.444 43.649 61.196-3 38v66h208.5c4.458-6.445 7.5-11 4-22.5s-29.663-37.385-72.5-31"/><path fill="url(#d)" d="M55 13C15 3.5 10.5-5 10.5-5L281-2c-8.837 30.196-18.357 44.86-54.5 61.5s-82.5-4-95-16S95 22.5 55 13"/><path fill="url(#e)" fill-rule="evenodd" d="M232.548 115.44s-19-52-21-61 1.5-15 10-18c7.462-2.634 48.834-15.672 65.255-20.846l5.245-1.654c9.501-3 14.5 1.5 17.5 9s20.5 59.5 20.5 59.5l-23.5-11.5-12 23.5-39.5-20zm44.501-54.5c7.455 0 13.5-6.044 13.5-13.5s-6.045-13.5-13.5-13.5c-7.456 0-13.5 6.044-13.5 13.5s6.044 13.5 13.5 13.5" clip-rule="evenodd"/><path fill="#fff" d="M26.992 66h-3.408V49.992h11.328v3h-7.92zm18.364 0h-3.048v-1.2q-1.248 1.488-3.672 1.488-1.56 0-2.808-1.008-1.224-1.032-1.224-2.832 0-1.872 1.2-2.808 1.224-.936 2.832-.936 2.472 0 3.672 1.416v-1.56q0-.888-.696-1.416t-1.848-.528q-1.896 0-3.384 1.368l-1.152-2.04q2.064-1.824 5.064-1.824 2.232 0 3.648 1.032t1.416 3.36zm-5.496-1.776q1.704 0 2.448-1.008v-1.44q-.744-1.008-2.448-1.008-.936 0-1.56.48-.624.456-.624 1.272 0 .792.624 1.248t1.56.456m7.44 2.064v-2.496q.72 0 1.151-.84.432-.864.696-2.928l.744-5.616h9.384V66h-3.048v-8.928h-3.672l-.384 3.312q-.36 3.048-1.536 4.488-1.152 1.416-3.336 1.416m20.45 0q-2.69 0-4.44-1.68-1.753-1.68-1.753-4.416 0-2.568 1.68-4.32 1.704-1.752 4.32-1.752 2.592 0 4.2 1.776 1.608 1.752 1.608 4.608v.672H64.75q.144 1.152 1.032 1.92t2.304.768q.768 0 1.656-.312.912-.312 1.44-.84l1.344 1.968q-1.752 1.608-4.776 1.608m2.663-7.176q-.072-.984-.792-1.776-.696-.792-2.064-.792-1.296 0-2.016.792a3.07 3.07 0 0 0-.84 1.776zm11.778 7.176q-2.184 0-3.576-1.776v5.904h-3.048V54.408h3.048v1.464q1.368-1.752 3.576-1.752 2.28 0 3.696 1.632 1.44 1.608 1.44 4.44t-1.44 4.464q-1.416 1.632-3.696 1.632m-.96-2.712q1.32 0 2.112-.936.816-.936.816-2.448 0-1.488-.816-2.424-.792-.936-2.112-.936a3.2 3.2 0 0 0-1.488.384q-.744.384-1.128.936v4.104q.384.552 1.128.936.768.384 1.488.384m13.776 2.712q-2.688 0-4.44-1.68t-1.752-4.416q0-2.568 1.68-4.32 1.704-1.752 4.32-1.752 2.592 0 4.2 1.776 1.608 1.752 1.608 4.608v.672h-8.616q.144 1.152 1.032 1.92t2.304.768q.768 0 1.656-.312.912-.312 1.44-.84l1.344 1.968q-1.752 1.608-4.776 1.608m2.664-7.176q-.072-.984-.792-1.776-.696-.792-2.064-.792-1.296 0-2.016.792a3.07 3.07 0 0 0-.84 1.776zM105.753 66h-2.928V54.408h3.048v7.008l4.776-7.008h3.072V66h-3.048v-7.272zM25.92 43.168q-.616 0-1.162-.126a4.8 4.8 0 0 1-.994-.322 4 4 0 0 1-.798-.49 3 3 0 0 1-.56-.602l.686-.742q.42.546 1.176.896t1.624.35q1.105 0 1.722-.462.63-.476.63-1.288 0-.435-.182-.742a1.3 1.3 0 0 0-.49-.518 2.5 2.5 0 0 0-.77-.294 4.6 4.6 0 0 0-.98-.098h-1.904v-1.036h1.904q.462 0 .868-.084.42-.098.728-.28.308-.196.49-.476.182-.294.182-.7 0-.392-.182-.686a1.4 1.4 0 0 0-.476-.49 2.2 2.2 0 0 0-.714-.308 3.3 3.3 0 0 0-.868-.112q-1.582 0-2.646 1.134l-.644-.728q.533-.615 1.386-1.022.868-.42 1.988-.42.686 0 1.288.168.615.168 1.064.49.462.308.728.784.266.462.266 1.05 0 .504-.196.882-.195.378-.49.644a2.6 2.6 0 0 1-.658.434 3 3 0 0 1-.672.21q.322.029.7.182a2.5 2.5 0 0 1 .7.434q.322.28.532.7.224.42.224.98 0 .588-.252 1.078a2.6 2.6 0 0 1-.714.854q-.462.35-1.106.56a4.9 4.9 0 0 1-1.428.196M35.454 43v-.77q-.855.938-2.24.938-.434 0-.854-.14a2.3 2.3 0 0 1-.756-.42 2.3 2.3 0 0 1-.546-.714q-.21-.42-.21-.966 0-.56.21-.98t.546-.7a2.1 2.1 0 0 1 .756-.406q.42-.14.854-.14.699 0 1.26.224.574.225.98.7v-1.218q0-.686-.49-1.05-.477-.378-1.218-.378-1.19 0-2.072.938l-.49-.728q1.078-1.12 2.702-1.12.531 0 1.008.126.475.127.826.406.363.265.574.7t.21 1.05V43zm-1.862-.588q.56 0 1.05-.21.504-.21.812-.63v-1.274a1.9 1.9 0 0 0-.812-.63 2.6 2.6 0 0 0-1.05-.21q-.742 0-1.204.42-.462.405-.462 1.064 0 .645.462 1.064.462.405 1.204.406m9.749-5.25h-3.682V43h-1.05v-6.762h4.732zm4.697 6.006q-.7 0-1.288-.308a2.8 2.8 0 0 1-.994-.882v3.598h-1.05v-9.338h1.05v1.008q.364-.518.966-.84.603-.336 1.316-.336.672 0 1.218.252.56.238.952.7.406.448.616 1.106.224.658.224 1.484a4.6 4.6 0 0 1-.224 1.484 3.1 3.1 0 0 1-.616 1.12 2.7 2.7 0 0 1-.952.714q-.546.238-1.218.238m-.266-.938q.505 0 .91-.196.406-.196.686-.546t.42-.826q.154-.49.154-1.05a3.4 3.4 0 0 0-.154-1.036 2.4 2.4 0 0 0-.42-.826 1.96 1.96 0 0 0-.686-.546 2.1 2.1 0 0 0-.91-.196q-.63 0-1.19.322-.547.307-.826.756v3.052q.28.448.826.77.56.322 1.19.322m4.736 2.464a1 1 0 0 0 .28.084q.168.028.294.028.35 0 .588-.154.239-.14.42-.56l.448-1.022-2.828-6.832h1.134l2.254 5.544 2.24-5.544h1.148l-3.388 8.134q-.308.743-.812 1.05a2.3 2.3 0 0 1-1.176.322q-.168 0-.392-.028a3 3 0 0 1-.378-.07zm9.467-1.526q-1.021 0-1.792-.294a3.8 3.8 0 0 1-1.26-.812l.518-.672q.476.448 1.12.686.658.224 1.414.224.91 0 1.442-.322.546-.323.546-.854a.8.8 0 0 0-.168-.518 1.1 1.1 0 0 0-.462-.35 2.2 2.2 0 0 0-.672-.196 6 6 0 0 0-.826-.056h-1.512v-.854h1.512q.42 0 .784-.07t.63-.21q.28-.14.434-.35a.83.83 0 0 0 .154-.504.7.7 0 0 0-.154-.434 1.2 1.2 0 0 0-.42-.35 2 2 0 0 0-.616-.21 3.5 3.5 0 0 0-.784-.084q-1.413 0-2.268.868l-.546-.644a3.5 3.5 0 0 1 1.162-.784q.687-.294 1.61-.294.687 0 1.246.126.575.112.98.35.42.224.644.56a1.3 1.3 0 0 1 .238.77q0 .378-.182.672a1.7 1.7 0 0 1-.434.504q-.266.196-.588.322a3.3 3.3 0 0 1-.616.154q.294.028.63.126.35.098.644.308.294.196.49.504.195.294.196.714 0 .42-.21.784t-.616.63a3 3 0 0 1-.966.406 5 5 0 0 1-1.302.154M66.773 43v-6.762h1.05v5.166l3.542-5.166H72.4V43h-1.05v-5.264L67.78 43zm8.956 0v-5.838h-1.96v-.924h4.984v.924H76.78V43zm5.451-6.762v2.618h2.534q.518 0 .91.168.406.168.672.462.28.28.406.658.14.364.14.784t-.14.798a1.9 1.9 0 0 1-.406.658 1.9 1.9 0 0 1-.672.448 2.3 2.3 0 0 1-.91.168H80.13v-6.762zm0 3.542v2.296h2.422q.574 0 .868-.322t.294-.826q0-.49-.294-.812-.28-.336-.868-.336zM91.054 43v-6.762h1.05v5.166l3.542-5.166h1.036V43h-1.05v-5.264L92.062 43zm10.119.168q-1.023 0-1.793-.294a3.8 3.8 0 0 1-1.26-.812l.518-.672q.477.448 1.12.686.659.224 1.415.224.91 0 1.442-.322.546-.323.546-.854a.8.8 0 0 0-.168-.518 1.1 1.1 0 0 0-.462-.35 2.2 2.2 0 0 0-.672-.196 6 6 0 0 0-.826-.056H99.52v-.854h1.513q.42 0 .784-.07.363-.07.63-.21.28-.14.434-.35a.83.83 0 0 0 .154-.504.7.7 0 0 0-.154-.434 1.2 1.2 0 0 0-.42-.35 2.1 2.1 0 0 0-.616-.21 3.5 3.5 0 0 0-.784-.084q-1.415 0-2.269.868l-.546-.644a3.5 3.5 0 0 1 1.163-.784q.686-.294 1.61-.294.685 0 1.246.126.573.112.98.35.42.224.644.56.237.335.238.77 0 .378-.182.672a1.7 1.7 0 0 1-.434.504q-.267.196-.588.322-.322.112-.616.154.294.028.63.126.35.098.644.308.294.196.49.504.195.294.196.714 0 .42-.21.784a1.9 1.9 0 0 1-.616.63 3 3 0 0 1-.966.406 5 5 0 0 1-1.302.154"/></g><defs><linearGradient id="b" x1="0" x2="326" y1="104" y2="58.5" gradientUnits="userSpaceOnUse"><stop stop-color="#FC2B7B"/><stop offset=".845" stop-color="#FF755B"/></linearGradient><linearGradient id="c" x1="-3" x2="211" y1="91.5" y2="91.5" gradientUnits="userSpaceOnUse"><stop stop-color="#FD3D73"/><stop offset="1" stop-color="#FE7357"/></linearGradient><linearGradient id="d" x1="19.5" x2="281" y1="0" y2="34" gradientUnits="userSpaceOnUse"><stop stop-color="#FD6F59"/><stop offset="1" stop-color="#FF2E72"/></linearGradient><linearGradient id="e" x1="240.5" x2="270.524" y1="30.5" y2="115.44" gradientUnits="userSpaceOnUse"><stop stop-color="#fff"/><stop offset="1" stop-color="#fff" stop-opacity="0"/></linearGradient><clipPath id="a"><rect width="326" height="104" fill="#fff" rx="10"/></clipPath></defs></svg>